<svg width="190" height="70" viewBox="0 0 190 70" fill="none" xmlns="http://www.w3.org/2000/svg">
<g filter="url(#filter0_d)">
<rect x="10" y="10" width="150" height="30" rx="15" fill="url(#paint0_linear)"/>
<path d="M46.7227 29.0273H40.1133L38.7305 33H35.6484L42.0938 15.9375H44.7539L51.2109 33H48.1172L46.7227 29.0273ZM40.9453 26.6367H45.8906L43.418 19.5586L40.9453 26.6367ZM58.0898 30.9609C58.8008 30.9609 59.3906 30.7539 59.8594 30.3398C60.3281 29.9258 60.5781 29.4141 60.6094 28.8047H63.293C63.2617 29.5938 63.0156 30.332 62.5547 31.0195C62.0938 31.6992 61.4688 32.2383 60.6797 32.6367C59.8906 33.0352 59.0391 33.2344 58.125 33.2344C56.3516 33.2344 54.9453 32.6602 53.9062 31.5117C52.8672 30.3633 52.3477 28.7773 52.3477 26.7539V26.4609C52.3477 24.5312 52.8633 22.9883 53.8945 21.832C54.9258 20.668 56.332 20.0859 58.1133 20.0859C59.6211 20.0859 60.8477 20.5273 61.793 21.4102C62.7461 22.2852 63.2461 23.4375 63.293 24.8672H60.6094C60.5781 24.1406 60.3281 23.543 59.8594 23.0742C59.3984 22.6055 58.8086 22.3711 58.0898 22.3711C57.168 22.3711 56.457 22.707 55.957 23.3789C55.457 24.043 55.2031 25.0547 55.1953 26.4141V26.8711C55.1953 28.2461 55.4414 29.2734 55.9336 29.9531C56.4336 30.625 57.1523 30.9609 58.0898 30.9609ZM69.0117 17.2383V20.3203H71.25V22.4297H69.0117V29.5078C69.0117 29.9922 69.1055 30.3438 69.293 30.5625C69.4883 30.7734 69.832 30.8789 70.3242 30.8789C70.6523 30.8789 70.9844 30.8398 71.3203 30.7617V32.9648C70.6719 33.1445 70.0469 33.2344 69.4453 33.2344C67.2578 33.2344 66.1641 32.0273 66.1641 29.6133V22.4297H64.0781V20.3203H66.1641V17.2383H69.0117ZM76.4648 33H73.6172V20.3203H76.4648V33ZM73.4414 17.0273C73.4414 16.5898 73.5781 16.2266 73.8516 15.9375C74.1328 15.6484 74.5312 15.5039 75.0469 15.5039C75.5625 15.5039 75.9609 15.6484 76.2422 15.9375C76.5234 16.2266 76.6641 16.5898 76.6641 17.0273C76.6641 17.457 76.5234 17.8164 76.2422 18.1055C75.9609 18.3867 75.5625 18.5273 75.0469 18.5273C74.5312 18.5273 74.1328 18.3867 73.8516 18.1055C73.5781 17.8164 73.4414 17.457 73.4414 17.0273ZM84.0469 29.3906L86.7305 20.3203H89.6719L85.2773 33H82.8047L78.375 20.3203H81.3281L84.0469 29.3906ZM94.4883 33H91.6406V20.3203H94.4883V33ZM91.4648 17.0273C91.4648 16.5898 91.6016 16.2266 91.875 15.9375C92.1562 15.6484 92.5547 15.5039 93.0703 15.5039C93.5859 15.5039 93.9844 15.6484 94.2656 15.9375C94.5469 16.2266 94.6875 16.5898 94.6875 17.0273C94.6875 17.457 94.5469 17.8164 94.2656 18.1055C93.9844 18.3867 93.5859 18.5273 93.0703 18.5273C92.5547 18.5273 92.1562 18.3867 91.875 18.1055C91.6016 17.8164 91.4648 17.457 91.4648 17.0273ZM101.168 17.2383V20.3203H103.406V22.4297H101.168V29.5078C101.168 29.9922 101.262 30.3438 101.449 30.5625C101.645 30.7734 101.988 30.8789 102.48 30.8789C102.809 30.8789 103.141 30.8398 103.477 30.7617V32.9648C102.828 33.1445 102.203 33.2344 101.602 33.2344C99.4141 33.2344 98.3203 32.0273 98.3203 29.6133V22.4297H96.2344V20.3203H98.3203V17.2383H101.168ZM108.621 33H105.773V20.3203H108.621V33ZM105.598 17.0273C105.598 16.5898 105.734 16.2266 106.008 15.9375C106.289 15.6484 106.688 15.5039 107.203 15.5039C107.719 15.5039 108.117 15.6484 108.398 15.9375C108.68 16.2266 108.82 16.5898 108.82 17.0273C108.82 17.457 108.68 17.8164 108.398 18.1055C108.117 18.3867 107.719 18.5273 107.203 18.5273C106.688 18.5273 106.289 18.3867 106.008 18.1055C105.734 17.8164 105.598 17.457 105.598 17.0273ZM117.316 33.2344C115.512 33.2344 114.047 32.668 112.922 31.5352C111.805 30.3945 111.246 28.8789 111.246 26.9883V26.6367C111.246 25.3711 111.488 24.2422 111.973 23.25C112.465 22.25 113.152 21.4727 114.035 20.918C114.918 20.3633 115.902 20.0859 116.988 20.0859C118.715 20.0859 120.047 20.6367 120.984 21.7383C121.93 22.8398 122.402 24.3984 122.402 26.4141V27.5625H114.117C114.203 28.6094 114.551 29.4375 115.16 30.0469C115.777 30.6562 116.551 30.9609 117.48 30.9609C118.785 30.9609 119.848 30.4336 120.668 29.3789L122.203 30.8438C121.695 31.6016 121.016 32.1914 120.164 32.6133C119.32 33.0273 118.371 33.2344 117.316 33.2344ZM116.977 22.3711C116.195 22.3711 115.562 22.6445 115.078 23.1914C114.602 23.7383 114.297 24.5 114.164 25.4766H119.59V25.2656C119.527 24.3125 119.273 23.5938 118.828 23.1094C118.383 22.6172 117.766 22.3711 116.977 22.3711ZM131.73 29.5547C131.73 29.0469 131.52 28.6602 131.098 28.3945C130.684 28.1289 129.992 27.8945 129.023 27.6914C128.055 27.4883 127.246 27.2305 126.598 26.918C125.176 26.2305 124.465 25.2344 124.465 23.9297C124.465 22.8359 124.926 21.9219 125.848 21.1875C126.77 20.4531 127.941 20.0859 129.363 20.0859C130.879 20.0859 132.102 20.4609 133.031 21.2109C133.969 21.9609 134.438 22.9336 134.438 24.1289H131.59C131.59 23.582 131.387 23.1289 130.98 22.7695C130.574 22.4023 130.035 22.2188 129.363 22.2188C128.738 22.2188 128.227 22.3633 127.828 22.6523C127.438 22.9414 127.242 23.3281 127.242 23.8125C127.242 24.25 127.426 24.5898 127.793 24.832C128.16 25.0742 128.902 25.3203 130.02 25.5703C131.137 25.8125 132.012 26.1055 132.645 26.4492C133.285 26.7852 133.758 27.1914 134.062 27.668C134.375 28.1445 134.531 28.7227 134.531 29.4023C134.531 30.543 134.059 31.4688 133.113 32.1797C132.168 32.8828 130.93 33.2344 129.398 33.2344C128.359 33.2344 127.434 33.0469 126.621 32.6719C125.809 32.2969 125.176 31.7812 124.723 31.125C124.27 30.4688 124.043 29.7617 124.043 29.0039H126.809C126.848 29.6758 127.102 30.1953 127.57 30.5625C128.039 30.9219 128.66 31.1016 129.434 31.1016C130.184 31.1016 130.754 30.9609 131.145 30.6797C131.535 30.3906 131.73 30.0156 131.73 29.5547Z" fill="black"/>
</g>
<defs>
<filter id="filter0_d" x="0" y="0" width="190" height="70" filterUnits="userSpaceOnUse" color-interpolation-filters="sRGB">
<feFlood flood-opacity="0" result="BackgroundImageFix"/>
<feColorMatrix in="SourceAlpha" type="matrix" values="0 0 0 0 0 0 0 0 0 0 0 0 0 0 0 0 0 0 127 0"/>
<feOffset dx="10" dy="10"/>
<feGaussianBlur stdDeviation="10"/>
<feColorMatrix type="matrix" values="0 0 0 0 0 0 0 0 0 0 0 0 0 0 0 0 0 0 0.15 0"/>
<feBlend mode="normal" in2="BackgroundImageFix" result="effect1_dropShadow"/>
<feBlend mode="normal" in="SourceGraphic" in2="effect1_dropShadow" result="shape"/>
</filter>
<linearGradient id="paint0_linear" x1="10" y1="40" x2="58.1132" y2="-46.6038" gradientUnits="userSpaceOnUse">
<stop stop-color="#1CEC2B"/>
<stop offset="1" stop-color="#3672F8"/>
</linearGradient>
</defs>
</svg>
