<svg width="60" height="54" viewBox="0 0 60 54" fill="none" xmlns="http://www.w3.org/2000/svg">
<path d="M11.8054 0C4.6295 5.48157 0 14.1275 0 23.8548C0 40.4233 13.4315 53.8548 30 53.8548C46.5685 53.8548 60 40.4233 60 23.8548C60 14.1275 55.3705 5.48157 48.1946 0C47.0204 1.24567 45.7196 2.37076 44.3129 3.35477C50.7743 7.87445 55 15.3711 55 23.8548C55 37.6619 43.8071 48.8548 30 48.8548C16.1929 48.8548 5 37.6619 5 23.8548C5 15.3711 9.22572 7.87445 15.6871 3.35477C14.2804 2.37076 12.9796 1.24567 11.8054 0Z" fill="#BA2F4C"/>
</svg>
