<svg width="460" height="310" viewBox="0 0 460 310" fill="none" xmlns="http://www.w3.org/2000/svg">
<g opacity="0.9" filter="url(#filter0_df)">
<rect x="15" y="15" width="400" height="250" rx="10" fill="url(#paint0_linear)"/>
</g>
<path d="M123.879 218.62H129.943V220H122.183V207.203H123.879V218.62ZM140.402 207.203V215.904C140.396 217.111 140.016 218.099 139.26 218.866C138.51 219.634 137.49 220.064 136.201 220.158L135.753 220.176C134.353 220.176 133.236 219.798 132.404 219.042C131.572 218.286 131.15 217.246 131.139 215.922V207.203H132.809V215.869C132.809 216.795 133.063 217.516 133.573 218.031C134.083 218.541 134.81 218.796 135.753 218.796C136.708 218.796 137.438 218.541 137.941 218.031C138.451 217.521 138.706 216.804 138.706 215.878V207.203H140.402ZM152.9 220H151.204L144.762 210.139V220H143.065V207.203H144.762L151.222 217.108V207.203H152.9V220ZM155.897 220V207.203H159.51C160.623 207.203 161.607 207.449 162.463 207.941C163.318 208.434 163.978 209.134 164.44 210.042C164.909 210.95 165.146 211.993 165.152 213.171V213.988C165.152 215.195 164.918 216.253 164.449 217.161C163.986 218.069 163.321 218.767 162.454 219.253C161.593 219.739 160.588 219.988 159.439 220H155.897ZM157.585 208.592V218.62H159.36C160.661 218.62 161.672 218.216 162.393 217.407C163.119 216.599 163.482 215.447 163.482 213.953V213.206C163.482 211.753 163.14 210.625 162.454 209.822C161.774 209.014 160.808 208.604 159.554 208.592H157.585ZM169.521 220H167.833V207.203H169.521V220ZM177.149 221.099H175.752L181.096 207.203H182.484L177.149 221.099ZM191.142 207.203L195.325 217.645L199.509 207.203H201.697V220H200.01V215.017L200.168 209.638L195.967 220H194.675L190.482 209.664L190.649 215.017V220H188.962V207.203H191.142ZM211.91 214.085H206.364V218.62H212.807V220H204.677V207.203H212.719V208.592H206.364V212.705H211.91V214.085ZM219.601 214.823H216.595V220H214.898V207.203H219.135C220.576 207.203 221.684 207.531 222.457 208.188C223.236 208.844 223.626 209.799 223.626 211.053C223.626 211.85 223.409 212.544 222.976 213.136C222.548 213.728 221.95 214.17 221.183 214.463L224.188 219.895V220H222.378L219.601 214.823ZM216.595 213.443H219.188C220.025 213.443 220.69 213.227 221.183 212.793C221.681 212.359 221.93 211.779 221.93 211.053C221.93 210.262 221.692 209.655 221.218 209.233C220.749 208.812 220.069 208.598 219.179 208.592H216.595V213.443ZM235.412 215.939C235.254 217.293 234.753 218.339 233.909 219.077C233.071 219.81 231.955 220.176 230.561 220.176C229.049 220.176 227.836 219.634 226.922 218.55C226.014 217.466 225.56 216.016 225.56 214.199V212.969C225.56 211.779 225.771 210.733 226.192 209.831C226.62 208.929 227.224 208.237 228.003 207.757C228.782 207.271 229.685 207.027 230.71 207.027C232.069 207.027 233.159 207.408 233.979 208.17C234.8 208.926 235.277 209.975 235.412 211.316H233.716C233.569 210.297 233.25 209.559 232.758 209.102C232.271 208.645 231.589 208.416 230.71 208.416C229.632 208.416 228.785 208.814 228.17 209.611C227.561 210.408 227.256 211.542 227.256 213.013V214.252C227.256 215.641 227.546 216.745 228.126 217.565C228.706 218.386 229.518 218.796 230.561 218.796C231.498 218.796 232.216 218.585 232.714 218.163C233.218 217.735 233.552 216.994 233.716 215.939H235.412ZM242.417 214.823H239.411V220H237.715V207.203H241.951C243.393 207.203 244.5 207.531 245.273 208.188C246.053 208.844 246.442 209.799 246.442 211.053C246.442 211.85 246.226 212.544 245.792 213.136C245.364 213.728 244.767 214.17 243.999 214.463L247.005 219.895V220H245.194L242.417 214.823ZM239.411 213.443H242.004C242.842 213.443 243.507 213.227 243.999 212.793C244.497 212.359 244.746 211.779 244.746 211.053C244.746 210.262 244.509 209.655 244.034 209.233C243.565 208.812 242.886 208.598 241.995 208.592H239.411V213.443ZM256.049 214.085H250.503V218.62H256.945V220H248.815V207.203H256.857V208.592H250.503V212.705H256.049V214.085ZM259.046 220V207.203H262.658C263.771 207.203 264.756 207.449 265.611 207.941C266.467 208.434 267.126 209.134 267.589 210.042C268.058 210.95 268.295 211.993 268.301 213.171V213.988C268.301 215.195 268.066 216.253 267.598 217.161C267.135 218.069 266.47 218.767 265.603 219.253C264.741 219.739 263.736 219.988 262.588 220H259.046ZM260.733 208.592V218.62H262.509C263.81 218.62 264.82 218.216 265.541 217.407C266.268 216.599 266.631 215.447 266.631 213.953V213.206C266.631 211.753 266.288 210.625 265.603 209.822C264.923 209.014 263.956 208.604 262.702 208.592H260.733ZM272.669 220H270.981V207.203H272.669V220ZM280.298 221.099H278.9L284.244 207.203H285.633L280.298 221.099ZM296.347 217.759L300.003 207.203H301.849L297.103 220H295.608L290.871 207.203H292.708L296.347 217.759ZM310.805 214.085H305.259V218.62H311.701V220H303.571V207.203H311.613V208.592H305.259V212.705H310.805V214.085ZM323.637 220H321.94L315.498 210.139V220H313.802V207.203H315.498L321.958 217.108V207.203H323.637V220ZM326.634 220V207.203H330.246C331.359 207.203 332.344 207.449 333.199 207.941C334.055 208.434 334.714 209.134 335.177 210.042C335.646 210.95 335.883 211.993 335.889 213.171V213.988C335.889 215.195 335.654 216.253 335.186 217.161C334.723 218.069 334.058 218.767 333.19 219.253C332.329 219.739 331.324 219.988 330.176 220H326.634ZM328.321 208.592V218.62H330.097C331.397 218.62 332.408 218.216 333.129 217.407C333.855 216.599 334.219 215.447 334.219 213.953V213.206C334.219 211.753 333.876 210.625 333.19 209.822C332.511 209.014 331.544 208.604 330.29 208.592H328.321ZM343.14 214.823H340.134V220H338.438V207.203H342.674C344.115 207.203 345.223 207.531 345.996 208.188C346.775 208.844 347.165 209.799 347.165 211.053C347.165 211.85 346.948 212.544 346.515 213.136C346.087 213.728 345.489 214.17 344.722 214.463L347.728 219.895V220H345.917L343.14 214.823ZM340.134 213.443H342.727C343.564 213.443 344.229 213.227 344.722 212.793C345.22 212.359 345.469 211.779 345.469 211.053C345.469 210.262 345.231 209.655 344.757 209.233C344.288 208.812 343.608 208.598 342.718 208.592H340.134V213.443ZM356.771 214.085H351.226V218.62H357.668V220H349.538V207.203H357.58V208.592H351.226V212.705H356.771V214.085ZM359.769 220V207.203H363.381C364.494 207.203 365.479 207.449 366.334 207.941C367.189 208.434 367.849 209.134 368.312 210.042C368.78 210.95 369.018 211.993 369.023 213.171V213.988C369.023 215.195 368.789 216.253 368.32 217.161C367.857 218.069 367.192 218.767 366.325 219.253C365.464 219.739 364.459 219.988 363.311 220H359.769ZM361.456 208.592V218.62H363.231C364.532 218.62 365.543 218.216 366.264 217.407C366.99 216.599 367.354 215.447 367.354 213.953V213.206C367.354 211.753 367.011 210.625 366.325 209.822C365.646 209.014 364.679 208.604 363.425 208.592H361.456ZM373.392 220H371.704V207.203H373.392V220Z" fill="black"/>
<path d="M54.4385 90H49.3262V81.0938H41.7529V90H36.6113V68.6719H41.7529V77.1387H49.3262V68.6719H54.4385V90ZM62.6855 90H57.7344V74.1504H62.6855V90ZM57.4414 70.0635C57.4414 69.3604 57.6953 68.7842 58.2031 68.335C58.7109 67.8857 59.3701 67.6611 60.1807 67.6611C60.9912 67.6611 61.6504 67.8857 62.1582 68.335C62.666 68.7842 62.9199 69.3604 62.9199 70.0635C62.9199 70.7666 62.666 71.3428 62.1582 71.792C61.6504 72.2412 60.9912 72.4658 60.1807 72.4658C59.3701 72.4658 58.7109 72.2412 58.2031 71.792C57.6953 71.3428 57.4414 70.7666 57.4414 70.0635ZM80.4541 82.1924C80.4541 84.6533 79.8975 86.6211 78.7842 88.0957C77.6807 89.5605 76.1865 90.293 74.3018 90.293C72.8467 90.293 71.6504 89.7607 70.7129 88.6963V96.0938H65.7764V74.1504H70.3906L70.5371 75.6152C71.4844 74.4434 72.7295 73.8574 74.2725 73.8574C76.2256 73.8574 77.7441 74.5801 78.8281 76.0254C79.9121 77.4609 80.4541 79.4385 80.4541 81.958V82.1924ZM75.5176 81.8848C75.5176 79.0723 74.6973 77.666 73.0566 77.666C71.8848 77.666 71.1035 78.0859 70.7129 78.9258V85.166C71.1426 86.0449 71.9336 86.4844 73.0859 86.4844C74.6582 86.4844 75.4688 85.127 75.5176 82.4121V81.8848ZM97.3584 82.1924C97.3584 84.6533 96.8018 86.6211 95.6885 88.0957C94.585 89.5605 93.0908 90.293 91.2061 90.293C89.751 90.293 88.5547 89.7607 87.6172 88.6963V96.0938H82.6807V74.1504H87.2949L87.4414 75.6152C88.3887 74.4434 89.6338 73.8574 91.1768 73.8574C93.1299 73.8574 94.6484 74.5801 95.7324 76.0254C96.8164 77.4609 97.3584 79.4385 97.3584 81.958V82.1924ZM92.4219 81.8848C92.4219 79.0723 91.6016 77.666 89.9609 77.666C88.7891 77.666 88.0078 78.0859 87.6172 78.9258V85.166C88.0469 86.0449 88.8379 86.4844 89.9902 86.4844C91.5625 86.4844 92.373 85.127 92.4219 82.4121V81.8848ZM98.9258 81.9287C98.9258 80.3467 99.2334 78.9404 99.8486 77.71C100.464 76.4697 101.348 75.5176 102.5 74.8535C103.652 74.1895 105.005 73.8574 106.558 73.8574C108.931 73.8574 110.801 74.5947 112.168 76.0693C113.535 77.5342 114.219 79.5312 114.219 82.0605V82.2363C114.219 84.707 113.53 86.6699 112.153 88.125C110.786 89.5703 108.931 90.293 106.587 90.293C104.331 90.293 102.52 89.6191 101.152 88.2715C99.7852 86.9141 99.0479 85.0781 98.9404 82.7637L98.9258 81.9287ZM103.862 82.2363C103.862 83.7012 104.092 84.7754 104.551 85.459C105.01 86.1426 105.688 86.4844 106.587 86.4844C108.345 86.4844 109.243 85.1318 109.282 82.4268V81.9287C109.282 79.0869 108.374 77.666 106.558 77.666C104.907 77.666 104.014 78.8916 103.877 81.3428L103.862 82.2363ZM122.144 70.21V74.1504H124.751V77.5781H122.144V84.8291C122.144 85.4248 122.251 85.8398 122.466 86.0742C122.681 86.3086 123.105 86.4258 123.74 86.4258C124.229 86.4258 124.639 86.3965 124.971 86.3379V89.8682C124.082 90.1514 123.154 90.293 122.188 90.293C120.488 90.293 119.233 89.8926 118.423 89.0918C117.612 88.291 117.207 87.0752 117.207 85.4443V77.5781H115.186V74.1504H117.207V70.21H122.144ZM131.533 75.8496C132.588 74.5215 133.936 73.8574 135.576 73.8574C137.324 73.8574 138.643 74.375 139.531 75.4102C140.42 76.4453 140.874 77.9736 140.894 79.9951V90H135.942V80.1123C135.942 79.2725 135.771 78.6572 135.43 78.2666C135.088 77.8662 134.507 77.666 133.687 77.666C132.671 77.666 131.953 77.9883 131.533 78.6328V90H126.597V67.5H131.533V75.8496ZM151.309 90.293C148.877 90.293 146.909 89.5703 145.405 88.125C143.901 86.6699 143.149 84.7803 143.149 82.4561V82.0459C143.149 80.4248 143.447 78.9941 144.043 77.7539C144.648 76.5137 145.527 75.5566 146.68 74.8828C147.832 74.1992 149.199 73.8574 150.781 73.8574C153.008 73.8574 154.766 74.5508 156.055 75.9375C157.344 77.3145 157.988 79.2383 157.988 81.709V83.6279H148.174C148.35 84.5166 148.735 85.2148 149.331 85.7227C149.927 86.2305 150.698 86.4844 151.646 86.4844C153.208 86.4844 154.429 85.9375 155.308 84.8438L157.563 87.5098C156.948 88.3594 156.074 89.0381 154.941 89.5459C153.818 90.0439 152.607 90.293 151.309 90.293ZM150.752 77.666C149.307 77.666 148.447 78.623 148.174 80.5371H153.154V80.1562C153.174 79.3652 152.974 78.7549 152.554 78.3252C152.134 77.8857 151.533 77.666 150.752 77.666ZM150.693 67.4854H155.908L151.836 72.085H147.808L150.693 67.4854ZM169.575 78.6182L167.949 78.501C166.396 78.501 165.4 78.9893 164.961 79.9658V90H160.024V74.1504H164.653L164.814 76.1865C165.645 74.6338 166.802 73.8574 168.286 73.8574C168.813 73.8574 169.272 73.916 169.663 74.0332L169.575 78.6182ZM179.844 90C179.668 89.6777 179.512 89.2041 179.375 88.5791C178.467 89.7217 177.197 90.293 175.566 90.293C174.072 90.293 172.803 89.8438 171.758 88.9453C170.713 88.0371 170.19 86.8994 170.19 85.5322C170.19 83.8135 170.825 82.5146 172.095 81.6357C173.364 80.7568 175.21 80.3174 177.632 80.3174H179.155V79.4824C179.155 78.0273 178.525 77.2998 177.266 77.2998C176.094 77.2998 175.508 77.876 175.508 79.0283H170.571C170.571 77.4951 171.221 76.25 172.52 75.293C173.828 74.3359 175.493 73.8574 177.515 73.8574C179.536 73.8574 181.133 74.3506 182.305 75.3369C183.477 76.3232 184.077 77.6758 184.106 79.3945V86.4111C184.126 87.8662 184.351 88.9795 184.78 89.751V90H179.844ZM176.753 86.7773C177.368 86.7773 177.876 86.6455 178.276 86.3818C178.687 86.1182 178.979 85.8203 179.155 85.4883V82.9541H177.72C176.001 82.9541 175.142 83.7256 175.142 85.2686C175.142 85.7178 175.293 86.084 175.596 86.3672C175.898 86.6406 176.284 86.7773 176.753 86.7773ZM201.567 82.1924C201.567 84.6533 201.011 86.6211 199.897 88.0957C198.794 89.5605 197.3 90.293 195.415 90.293C193.96 90.293 192.764 89.7607 191.826 88.6963V96.0938H186.89V74.1504H191.504L191.65 75.6152C192.598 74.4434 193.843 73.8574 195.386 73.8574C197.339 73.8574 198.857 74.5801 199.941 76.0254C201.025 77.4609 201.567 79.4385 201.567 81.958V82.1924ZM196.631 81.8848C196.631 79.0723 195.811 77.666 194.17 77.666C192.998 77.666 192.217 78.0859 191.826 78.9258V85.166C192.256 86.0449 193.047 86.4844 194.199 86.4844C195.771 86.4844 196.582 85.127 196.631 82.4121V81.8848ZM208.965 90H204.014V74.1504H208.965V90ZM203.721 70.0635C203.721 69.3604 203.975 68.7842 204.482 68.335C204.99 67.8857 205.649 67.6611 206.46 67.6611C207.271 67.6611 207.93 67.8857 208.438 68.335C208.945 68.7842 209.199 69.3604 209.199 70.0635C209.199 70.7666 208.945 71.3428 208.438 71.792C207.93 72.2412 207.271 72.4658 206.46 72.4658C205.649 72.4658 204.99 72.2412 204.482 71.792C203.975 71.3428 203.721 70.7666 203.721 70.0635ZM219.688 90.293C217.256 90.293 215.288 89.5703 213.784 88.125C212.28 86.6699 211.528 84.7803 211.528 82.4561V82.0459C211.528 80.4248 211.826 78.9941 212.422 77.7539C213.027 76.5137 213.906 75.5566 215.059 74.8828C216.211 74.1992 217.578 73.8574 219.16 73.8574C221.387 73.8574 223.145 74.5508 224.434 75.9375C225.723 77.3145 226.367 79.2383 226.367 81.709V83.6279H216.553C216.729 84.5166 217.114 85.2148 217.71 85.7227C218.306 86.2305 219.077 86.4844 220.024 86.4844C221.587 86.4844 222.808 85.9375 223.687 84.8438L225.942 87.5098C225.327 88.3594 224.453 89.0381 223.32 89.5459C222.197 90.0439 220.986 90.293 219.688 90.293ZM219.131 77.666C217.686 77.666 216.826 78.623 216.553 80.5371H221.533V80.1562C221.553 79.3652 221.353 78.7549 220.933 78.3252C220.513 77.8857 219.912 77.666 219.131 77.666Z" fill="black"/>
<defs>
<filter id="filter0_df" x="0" y="0" width="460" height="310" filterUnits="userSpaceOnUse" color-interpolation-filters="sRGB">
<feFlood flood-opacity="0" result="BackgroundImageFix"/>
<feColorMatrix in="SourceAlpha" type="matrix" values="0 0 0 0 0 0 0 0 0 0 0 0 0 0 0 0 0 0 127 0"/>
<feOffset dx="15" dy="15"/>
<feGaussianBlur stdDeviation="15"/>
<feColorMatrix type="matrix" values="0 0 0 0 0 0 0 0 0 0 0 0 0 0 0 0 0 0 0.15 0"/>
<feBlend mode="normal" in2="BackgroundImageFix" result="effect1_dropShadow"/>
<feBlend mode="normal" in="SourceGraphic" in2="effect1_dropShadow" result="shape"/>
<feGaussianBlur stdDeviation="5" result="effect2_foregroundBlur"/>
</filter>
<linearGradient id="paint0_linear" x1="15" y1="15" x2="423.477" y2="250.283" gradientUnits="userSpaceOnUse">
<stop stop-color="#BA2F4C"/>
<stop offset="1" stop-color="#0B849E"/>
</linearGradient>
</defs>
</svg>
