<svg width="490" height="345" viewBox="0 0 490 345" fill="none" xmlns="http://www.w3.org/2000/svg">
<g filter="url(#filter0_df)">
<rect x="10" y="10" width="420" height="275" rx="10" fill="url(#paint0_linear)"/>
</g>
<path d="M136.879 236.62H142.943V238H135.183V225.203H136.879V236.62ZM153.402 225.203V233.904C153.396 235.111 153.016 236.099 152.26 236.866C151.51 237.634 150.49 238.064 149.201 238.158L148.753 238.176C147.353 238.176 146.236 237.798 145.404 237.042C144.572 236.286 144.15 235.246 144.139 233.922V225.203H145.809V233.869C145.809 234.795 146.063 235.516 146.573 236.031C147.083 236.541 147.81 236.796 148.753 236.796C149.708 236.796 150.438 236.541 150.941 236.031C151.451 235.521 151.706 234.804 151.706 233.878V225.203H153.402ZM165.9 238H164.204L157.762 228.139V238H156.065V225.203H157.762L164.222 235.108V225.203H165.9V238ZM168.897 238V225.203H172.51C173.623 225.203 174.607 225.449 175.463 225.941C176.318 226.434 176.978 227.134 177.44 228.042C177.909 228.95 178.146 229.993 178.152 231.171V231.988C178.152 233.195 177.918 234.253 177.449 235.161C176.986 236.069 176.321 236.767 175.454 237.253C174.593 237.739 173.588 237.988 172.439 238H168.897ZM170.585 226.592V236.62H172.36C173.661 236.62 174.672 236.216 175.393 235.407C176.119 234.599 176.482 233.447 176.482 231.953V231.206C176.482 229.753 176.14 228.625 175.454 227.822C174.774 227.014 173.808 226.604 172.554 226.592H170.585ZM182.521 238H180.833V225.203H182.521V238ZM190.149 239.099H188.752L194.096 225.203H195.484L190.149 239.099ZM204.142 225.203L208.325 235.645L212.509 225.203H214.697V238H213.01V233.017L213.168 227.638L208.967 238H207.675L203.482 227.664L203.649 233.017V238H201.962V225.203H204.142ZM224.91 232.085H219.364V236.62H225.807V238H217.677V225.203H225.719V226.592H219.364V230.705H224.91V232.085ZM232.601 232.823H229.595V238H227.898V225.203H232.135C233.576 225.203 234.684 225.531 235.457 226.188C236.236 226.844 236.626 227.799 236.626 229.053C236.626 229.85 236.409 230.544 235.976 231.136C235.548 231.728 234.95 232.17 234.183 232.463L237.188 237.895V238H235.378L232.601 232.823ZM229.595 231.443H232.188C233.025 231.443 233.69 231.227 234.183 230.793C234.681 230.359 234.93 229.779 234.93 229.053C234.93 228.262 234.692 227.655 234.218 227.233C233.749 226.812 233.069 226.598 232.179 226.592H229.595V231.443ZM248.412 233.939C248.254 235.293 247.753 236.339 246.909 237.077C246.071 237.81 244.955 238.176 243.561 238.176C242.049 238.176 240.836 237.634 239.922 236.55C239.014 235.466 238.56 234.016 238.56 232.199V230.969C238.56 229.779 238.771 228.733 239.192 227.831C239.62 226.929 240.224 226.237 241.003 225.757C241.782 225.271 242.685 225.027 243.71 225.027C245.069 225.027 246.159 225.408 246.979 226.17C247.8 226.926 248.277 227.975 248.412 229.316H246.716C246.569 228.297 246.25 227.559 245.758 227.102C245.271 226.645 244.589 226.416 243.71 226.416C242.632 226.416 241.785 226.814 241.17 227.611C240.561 228.408 240.256 229.542 240.256 231.013V232.252C240.256 233.641 240.546 234.745 241.126 235.565C241.706 236.386 242.518 236.796 243.561 236.796C244.498 236.796 245.216 236.585 245.714 236.163C246.218 235.735 246.552 234.994 246.716 233.939H248.412ZM255.417 232.823H252.411V238H250.715V225.203H254.951C256.393 225.203 257.5 225.531 258.273 226.188C259.053 226.844 259.442 227.799 259.442 229.053C259.442 229.85 259.226 230.544 258.792 231.136C258.364 231.728 257.767 232.17 256.999 232.463L260.005 237.895V238H258.194L255.417 232.823ZM252.411 231.443H255.004C255.842 231.443 256.507 231.227 256.999 230.793C257.497 230.359 257.746 229.779 257.746 229.053C257.746 228.262 257.509 227.655 257.034 227.233C256.565 226.812 255.886 226.598 254.995 226.592H252.411V231.443ZM269.049 232.085H263.503V236.62H269.945V238H261.815V225.203H269.857V226.592H263.503V230.705H269.049V232.085ZM272.046 238V225.203H275.658C276.771 225.203 277.756 225.449 278.611 225.941C279.467 226.434 280.126 227.134 280.589 228.042C281.058 228.95 281.295 229.993 281.301 231.171V231.988C281.301 233.195 281.066 234.253 280.598 235.161C280.135 236.069 279.47 236.767 278.603 237.253C277.741 237.739 276.736 237.988 275.588 238H272.046ZM273.733 226.592V236.62H275.509C276.81 236.62 277.82 236.216 278.541 235.407C279.268 234.599 279.631 233.447 279.631 231.953V231.206C279.631 229.753 279.288 228.625 278.603 227.822C277.923 227.014 276.956 226.604 275.702 226.592H273.733ZM285.669 238H283.981V225.203H285.669V238ZM293.298 239.099H291.9L297.244 225.203H298.633L293.298 239.099ZM309.347 235.759L313.003 225.203H314.849L310.103 238H308.608L303.871 225.203H305.708L309.347 235.759ZM323.805 232.085H318.259V236.62H324.701V238H316.571V225.203H324.613V226.592H318.259V230.705H323.805V232.085ZM336.637 238H334.94L328.498 228.139V238H326.802V225.203H328.498L334.958 235.108V225.203H336.637V238ZM339.634 238V225.203H343.246C344.359 225.203 345.344 225.449 346.199 225.941C347.055 226.434 347.714 227.134 348.177 228.042C348.646 228.95 348.883 229.993 348.889 231.171V231.988C348.889 233.195 348.654 234.253 348.186 235.161C347.723 236.069 347.058 236.767 346.19 237.253C345.329 237.739 344.324 237.988 343.176 238H339.634ZM341.321 226.592V236.62H343.097C344.397 236.62 345.408 236.216 346.129 235.407C346.855 234.599 347.219 233.447 347.219 231.953V231.206C347.219 229.753 346.876 228.625 346.19 227.822C345.511 227.014 344.544 226.604 343.29 226.592H341.321ZM356.14 232.823H353.134V238H351.438V225.203H355.674C357.115 225.203 358.223 225.531 358.996 226.188C359.775 226.844 360.165 227.799 360.165 229.053C360.165 229.85 359.948 230.544 359.515 231.136C359.087 231.728 358.489 232.17 357.722 232.463L360.728 237.895V238H358.917L356.14 232.823ZM353.134 231.443H355.727C356.564 231.443 357.229 231.227 357.722 230.793C358.22 230.359 358.469 229.779 358.469 229.053C358.469 228.262 358.231 227.655 357.757 227.233C357.288 226.812 356.608 226.598 355.718 226.592H353.134V231.443ZM369.771 232.085H364.226V236.62H370.668V238H362.538V225.203H370.58V226.592H364.226V230.705H369.771V232.085ZM372.769 238V225.203H376.381C377.494 225.203 378.479 225.449 379.334 225.941C380.189 226.434 380.849 227.134 381.312 228.042C381.78 228.95 382.018 229.993 382.023 231.171V231.988C382.023 233.195 381.789 234.253 381.32 235.161C380.857 236.069 380.192 236.767 379.325 237.253C378.464 237.739 377.459 237.988 376.311 238H372.769ZM374.456 226.592V236.62H376.231C377.532 236.62 378.543 236.216 379.264 235.407C379.99 234.599 380.354 233.447 380.354 231.953V231.206C380.354 229.753 380.011 228.625 379.325 227.822C378.646 227.014 377.679 226.604 376.425 226.592H374.456ZM386.392 238H384.704V225.203H386.392V238Z" fill="black"/>
<path d="M50.4395 79H45.3271V70.0938H37.7539V79H32.6123V57.6719H37.7539V66.1387H45.3271V57.6719H50.4395V79ZM58.6865 79H53.7354V63.1504H58.6865V79ZM53.4424 59.0635C53.4424 58.3604 53.6963 57.7842 54.2041 57.335C54.7119 56.8857 55.3711 56.6611 56.1816 56.6611C56.9922 56.6611 57.6514 56.8857 58.1592 57.335C58.667 57.7842 58.9209 58.3604 58.9209 59.0635C58.9209 59.7666 58.667 60.3428 58.1592 60.792C57.6514 61.2412 56.9922 61.4658 56.1816 61.4658C55.3711 61.4658 54.7119 61.2412 54.2041 60.792C53.6963 60.3428 53.4424 59.7666 53.4424 59.0635ZM76.4551 71.1924C76.4551 73.6533 75.8984 75.6211 74.7852 77.0957C73.6816 78.5605 72.1875 79.293 70.3027 79.293C68.8477 79.293 67.6514 78.7607 66.7139 77.6963V85.0938H61.7773V63.1504H66.3916L66.5381 64.6152C67.4854 63.4434 68.7305 62.8574 70.2734 62.8574C72.2266 62.8574 73.7451 63.5801 74.8291 65.0254C75.9131 66.4609 76.4551 68.4385 76.4551 70.958V71.1924ZM71.5186 70.8848C71.5186 68.0723 70.6982 66.666 69.0576 66.666C67.8857 66.666 67.1045 67.0859 66.7139 67.9258V74.166C67.1436 75.0449 67.9346 75.4844 69.0869 75.4844C70.6592 75.4844 71.4697 74.127 71.5186 71.4121V70.8848ZM93.3594 71.1924C93.3594 73.6533 92.8027 75.6211 91.6895 77.0957C90.5859 78.5605 89.0918 79.293 87.207 79.293C85.752 79.293 84.5557 78.7607 83.6182 77.6963V85.0938H78.6816V63.1504H83.2959L83.4424 64.6152C84.3896 63.4434 85.6348 62.8574 87.1777 62.8574C89.1309 62.8574 90.6494 63.5801 91.7334 65.0254C92.8174 66.4609 93.3594 68.4385 93.3594 70.958V71.1924ZM88.4229 70.8848C88.4229 68.0723 87.6025 66.666 85.9619 66.666C84.79 66.666 84.0088 67.0859 83.6182 67.9258V74.166C84.0479 75.0449 84.8389 75.4844 85.9912 75.4844C87.5635 75.4844 88.374 74.127 88.4229 71.4121V70.8848ZM94.9268 70.9287C94.9268 69.3467 95.2344 67.9404 95.8496 66.71C96.4648 65.4697 97.3486 64.5176 98.501 63.8535C99.6533 63.1895 101.006 62.8574 102.559 62.8574C104.932 62.8574 106.802 63.5947 108.169 65.0693C109.536 66.5342 110.22 68.5312 110.22 71.0605V71.2363C110.22 73.707 109.531 75.6699 108.154 77.125C106.787 78.5703 104.932 79.293 102.588 79.293C100.332 79.293 98.5205 78.6191 97.1533 77.2715C95.7861 75.9141 95.0488 74.0781 94.9414 71.7637L94.9268 70.9287ZM99.8633 71.2363C99.8633 72.7012 100.093 73.7754 100.552 74.459C101.011 75.1426 101.689 75.4844 102.588 75.4844C104.346 75.4844 105.244 74.1318 105.283 71.4268V70.9287C105.283 68.0869 104.375 66.666 102.559 66.666C100.908 66.666 100.015 67.8916 99.8779 70.3428L99.8633 71.2363ZM118.145 59.21V63.1504H120.752V66.5781H118.145V73.8291C118.145 74.4248 118.252 74.8398 118.467 75.0742C118.682 75.3086 119.106 75.4258 119.741 75.4258C120.229 75.4258 120.64 75.3965 120.972 75.3379V78.8682C120.083 79.1514 119.155 79.293 118.188 79.293C116.489 79.293 115.234 78.8926 114.424 78.0918C113.613 77.291 113.208 76.0752 113.208 74.4443V66.5781H111.187V63.1504H113.208V59.21H118.145ZM127.534 64.8496C128.589 63.5215 129.937 62.8574 131.577 62.8574C133.325 62.8574 134.644 63.375 135.532 64.4102C136.421 65.4453 136.875 66.9736 136.895 68.9951V79H131.943V69.1123C131.943 68.2725 131.772 67.6572 131.431 67.2666C131.089 66.8662 130.508 66.666 129.688 66.666C128.672 66.666 127.954 66.9883 127.534 67.6328V79H122.598V56.5H127.534V64.8496ZM147.31 79.293C144.878 79.293 142.91 78.5703 141.406 77.125C139.902 75.6699 139.15 73.7803 139.15 71.4561V71.0459C139.15 69.4248 139.448 67.9941 140.044 66.7539C140.649 65.5137 141.528 64.5566 142.681 63.8828C143.833 63.1992 145.2 62.8574 146.782 62.8574C149.009 62.8574 150.767 63.5508 152.056 64.9375C153.345 66.3145 153.989 68.2383 153.989 70.709V72.6279H144.175C144.351 73.5166 144.736 74.2148 145.332 74.7227C145.928 75.2305 146.699 75.4844 147.646 75.4844C149.209 75.4844 150.43 74.9375 151.309 73.8438L153.564 76.5098C152.949 77.3594 152.075 78.0381 150.942 78.5459C149.819 79.0439 148.608 79.293 147.31 79.293ZM146.753 66.666C145.308 66.666 144.448 67.623 144.175 69.5371H149.155V69.1562C149.175 68.3652 148.975 67.7549 148.555 67.3252C148.135 66.8857 147.534 66.666 146.753 66.666ZM146.694 56.4854H151.909L147.837 61.085H143.809L146.694 56.4854ZM165.576 67.6182L163.95 67.501C162.397 67.501 161.401 67.9893 160.962 68.9658V79H156.025V63.1504H160.654L160.815 65.1865C161.646 63.6338 162.803 62.8574 164.287 62.8574C164.814 62.8574 165.273 62.916 165.664 63.0332L165.576 67.6182ZM175.845 79C175.669 78.6777 175.513 78.2041 175.376 77.5791C174.468 78.7217 173.198 79.293 171.567 79.293C170.073 79.293 168.804 78.8438 167.759 77.9453C166.714 77.0371 166.191 75.8994 166.191 74.5322C166.191 72.8135 166.826 71.5146 168.096 70.6357C169.365 69.7568 171.211 69.3174 173.633 69.3174H175.156V68.4824C175.156 67.0273 174.526 66.2998 173.267 66.2998C172.095 66.2998 171.509 66.876 171.509 68.0283H166.572C166.572 66.4951 167.222 65.25 168.521 64.293C169.829 63.3359 171.494 62.8574 173.516 62.8574C175.537 62.8574 177.134 63.3506 178.306 64.3369C179.478 65.3232 180.078 66.6758 180.107 68.3945V75.4111C180.127 76.8662 180.352 77.9795 180.781 78.751V79H175.845ZM172.754 75.7773C173.369 75.7773 173.877 75.6455 174.277 75.3818C174.688 75.1182 174.98 74.8203 175.156 74.4883V71.9541H173.721C172.002 71.9541 171.143 72.7256 171.143 74.2686C171.143 74.7178 171.294 75.084 171.597 75.3672C171.899 75.6406 172.285 75.7773 172.754 75.7773ZM197.568 71.1924C197.568 73.6533 197.012 75.6211 195.898 77.0957C194.795 78.5605 193.301 79.293 191.416 79.293C189.961 79.293 188.765 78.7607 187.827 77.6963V85.0938H182.891V63.1504H187.505L187.651 64.6152C188.599 63.4434 189.844 62.8574 191.387 62.8574C193.34 62.8574 194.858 63.5801 195.942 65.0254C197.026 66.4609 197.568 68.4385 197.568 70.958V71.1924ZM192.632 70.8848C192.632 68.0723 191.812 66.666 190.171 66.666C188.999 66.666 188.218 67.0859 187.827 67.9258V74.166C188.257 75.0449 189.048 75.4844 190.2 75.4844C191.772 75.4844 192.583 74.127 192.632 71.4121V70.8848ZM204.966 79H200.015V63.1504H204.966V79ZM199.722 59.0635C199.722 58.3604 199.976 57.7842 200.483 57.335C200.991 56.8857 201.65 56.6611 202.461 56.6611C203.271 56.6611 203.931 56.8857 204.438 57.335C204.946 57.7842 205.2 58.3604 205.2 59.0635C205.2 59.7666 204.946 60.3428 204.438 60.792C203.931 61.2412 203.271 61.4658 202.461 61.4658C201.65 61.4658 200.991 61.2412 200.483 60.792C199.976 60.3428 199.722 59.7666 199.722 59.0635ZM215.688 79.293C213.257 79.293 211.289 78.5703 209.785 77.125C208.281 75.6699 207.529 73.7803 207.529 71.4561V71.0459C207.529 69.4248 207.827 67.9941 208.423 66.7539C209.028 65.5137 209.907 64.5566 211.06 63.8828C212.212 63.1992 213.579 62.8574 215.161 62.8574C217.388 62.8574 219.146 63.5508 220.435 64.9375C221.724 66.3145 222.368 68.2383 222.368 70.709V72.6279H212.554C212.729 73.5166 213.115 74.2148 213.711 74.7227C214.307 75.2305 215.078 75.4844 216.025 75.4844C217.588 75.4844 218.809 74.9375 219.688 73.8438L221.943 76.5098C221.328 77.3594 220.454 78.0381 219.321 78.5459C218.198 79.0439 216.987 79.293 215.688 79.293ZM215.132 66.666C213.687 66.666 212.827 67.623 212.554 69.5371H217.534V69.1562C217.554 68.3652 217.354 67.7549 216.934 67.3252C216.514 66.8857 215.913 66.666 215.132 66.666Z" fill="black"/>
<defs>
<filter id="filter0_df" x="0" y="0" width="490" height="345" filterUnits="userSpaceOnUse" color-interpolation-filters="sRGB">
<feFlood flood-opacity="0" result="BackgroundImageFix"/>
<feColorMatrix in="SourceAlpha" type="matrix" values="0 0 0 0 0 0 0 0 0 0 0 0 0 0 0 0 0 0 127 0"/>
<feOffset dx="30" dy="30"/>
<feGaussianBlur stdDeviation="15"/>
<feColorMatrix type="matrix" values="0 0 0 0 0 0 0 0 0 0 0 0 0 0 0 0 0 0 0.3 0"/>
<feBlend mode="normal" in2="BackgroundImageFix" result="effect1_dropShadow"/>
<feBlend mode="normal" in="SourceGraphic" in2="effect1_dropShadow" result="shape"/>
<feGaussianBlur stdDeviation="5" result="effect2_foregroundBlur"/>
</filter>
<linearGradient id="paint0_linear" x1="10" y1="10" x2="448.609" y2="251.155" gradientUnits="userSpaceOnUse">
<stop stop-color="#BA2F4C"/>
<stop offset="1" stop-color="#3672F8"/>
</linearGradient>
</defs>
</svg>
