<svg width="490" height="345" viewBox="0 0 490 345" fill="none" xmlns="http://www.w3.org/2000/svg">
<g filter="url(#filter0_df)">
<rect x="10" y="10" width="420" height="275" rx="10" fill="url(#paint0_linear)"/>
</g>
<path d="M219.865 232.296C218.418 231.88 217.363 231.37 216.701 230.767C216.045 230.157 215.717 229.407 215.717 228.517C215.717 227.509 216.118 226.677 216.921 226.021C217.729 225.358 218.778 225.027 220.067 225.027C220.946 225.027 221.729 225.197 222.414 225.537C223.105 225.877 223.639 226.346 224.014 226.943C224.395 227.541 224.585 228.194 224.585 228.903H222.889C222.889 228.13 222.643 227.523 222.15 227.084C221.658 226.639 220.964 226.416 220.067 226.416C219.235 226.416 218.585 226.601 218.116 226.97C217.653 227.333 217.422 227.84 217.422 228.49C217.422 229.012 217.642 229.454 218.081 229.817C218.526 230.175 219.279 230.503 220.34 230.802C221.406 231.101 222.238 231.432 222.836 231.795C223.439 232.152 223.885 232.571 224.172 233.052C224.465 233.532 224.611 234.098 224.611 234.748C224.611 235.785 224.207 236.617 223.398 237.244C222.59 237.865 221.509 238.176 220.155 238.176C219.276 238.176 218.456 238.009 217.694 237.675C216.933 237.335 216.344 236.872 215.928 236.286C215.518 235.7 215.312 235.035 215.312 234.291H217.009C217.009 235.064 217.293 235.677 217.861 236.128C218.436 236.573 219.2 236.796 220.155 236.796C221.046 236.796 221.729 236.614 222.203 236.251C222.678 235.888 222.915 235.393 222.915 234.766C222.915 234.139 222.695 233.655 222.256 233.315C221.816 232.97 221.02 232.63 219.865 232.296ZM233.849 234.66H228.487L227.283 238H225.543L230.43 225.203H231.906L236.802 238H235.07L233.849 234.66ZM228.997 233.271H233.348L231.168 227.286L228.997 233.271ZM240.704 225.203L244.888 235.645L249.071 225.203H251.26V238H249.572V233.017L249.73 227.638L245.529 238H244.237L240.045 227.664L240.212 233.017V238H238.524V225.203H240.704ZM261.473 232.085H255.927V236.62H262.369V238H254.239V225.203H262.281V226.592H255.927V230.705H261.473V232.085ZM264.47 238V225.203H268.082C269.195 225.203 270.18 225.449 271.035 225.941C271.891 226.434 272.55 227.134 273.013 228.042C273.481 228.95 273.719 229.993 273.725 231.171V231.988C273.725 233.195 273.49 234.253 273.021 235.161C272.559 236.069 271.894 236.767 271.026 237.253C270.165 237.739 269.16 237.988 268.012 238H264.47ZM266.157 226.592V236.62H267.933C269.233 236.62 270.244 236.216 270.965 235.407C271.691 234.599 272.055 233.447 272.055 231.953V231.206C272.055 229.753 271.712 228.625 271.026 227.822C270.347 227.014 269.38 226.604 268.126 226.592H266.157ZM278.093 238H276.405V225.203H278.093V238ZM285.722 239.099H284.324L289.668 225.203H291.057L285.722 239.099ZM297.534 238V225.203H301.146C302.26 225.203 303.244 225.449 304.1 225.941C304.955 226.434 305.614 227.134 306.077 228.042C306.546 228.95 306.783 229.993 306.789 231.171V231.988C306.789 233.195 306.555 234.253 306.086 235.161C305.623 236.069 304.958 236.767 304.091 237.253C303.229 237.739 302.225 237.988 301.076 238H297.534ZM299.222 226.592V236.62H300.997C302.298 236.62 303.309 236.216 304.029 235.407C304.756 234.599 305.119 233.447 305.119 231.953V231.206C305.119 229.753 304.776 228.625 304.091 227.822C303.411 227.014 302.444 226.604 301.19 226.592H299.222ZM311.157 238H309.47V225.203H311.157V238ZM316.431 225.203L320.614 235.645L324.798 225.203H326.986V238H325.299V233.017L325.457 227.638L321.256 238H319.964L315.771 227.664L315.938 233.017V238H314.251V225.203H316.431ZM337.19 234.66H331.829L330.625 238H328.885L333.771 225.203H335.248L340.144 238H338.412L337.19 234.66ZM332.339 233.271H336.689L334.51 227.286L332.339 233.271ZM351.701 238H350.005L343.562 228.139V238H341.866V225.203H343.562L350.022 235.108V225.203H351.701V238ZM364.111 233.939C363.953 235.293 363.452 236.339 362.608 237.077C361.771 237.81 360.654 238.176 359.26 238.176C357.748 238.176 356.535 237.634 355.621 236.55C354.713 235.466 354.259 234.016 354.259 232.199V230.969C354.259 229.779 354.47 228.733 354.892 227.831C355.319 226.929 355.923 226.237 356.702 225.757C357.481 225.271 358.384 225.027 359.409 225.027C360.769 225.027 361.858 225.408 362.679 226.17C363.499 226.926 363.977 227.975 364.111 229.316H362.415C362.269 228.297 361.949 227.559 361.457 227.102C360.971 226.645 360.288 226.416 359.409 226.416C358.331 226.416 357.484 226.814 356.869 227.611C356.26 228.408 355.955 229.542 355.955 231.013V232.252C355.955 233.641 356.245 234.745 356.825 235.565C357.405 236.386 358.217 236.796 359.26 236.796C360.197 236.796 360.915 236.585 361.413 236.163C361.917 235.735 362.251 234.994 362.415 233.939H364.111ZM376.258 238H374.562V232.085H368.11V238H366.423V225.203H368.11V230.705H374.562V225.203H376.258V238ZM386.488 232.085H380.942V236.62H387.385V238H379.255V225.203H387.297V226.592H380.942V230.705H386.488V232.085Z" fill="black"/>
<path d="M37.7539 71.7637V79H32.6123V57.6719H41.123C42.7539 57.6719 44.1943 57.9746 45.4443 58.5801C46.7041 59.1758 47.6758 60.0303 48.3594 61.1436C49.0527 62.2471 49.3994 63.502 49.3994 64.9082C49.3994 66.9883 48.6523 68.6533 47.1582 69.9033C45.6738 71.1436 43.6328 71.7637 41.0352 71.7637H37.7539ZM37.7539 67.7939H41.123C42.1191 67.7939 42.876 67.5449 43.3936 67.0469C43.9209 66.5488 44.1846 65.8457 44.1846 64.9375C44.1846 63.9414 43.916 63.1455 43.3789 62.5498C42.8418 61.9541 42.1094 61.6514 41.1816 61.6416H37.7539V67.7939ZM61.5137 67.6182L59.8877 67.501C58.335 67.501 57.3389 67.9893 56.8994 68.9658V79H51.9629V63.1504H56.5918L56.7529 65.1865C57.583 63.6338 58.7402 62.8574 60.2246 62.8574C60.752 62.8574 61.2109 62.916 61.6016 63.0332L61.5137 67.6182ZM62.1436 70.9287C62.1436 69.3467 62.4512 67.9404 63.0664 66.71C63.6816 65.4697 64.5654 64.5176 65.7178 63.8535C66.8701 63.1895 68.2227 62.8574 69.7754 62.8574C72.1484 62.8574 74.0186 63.5947 75.3857 65.0693C76.7529 66.5342 77.4365 68.5312 77.4365 71.0605V71.2363C77.4365 73.707 76.748 75.6699 75.3711 77.125C74.0039 78.5703 72.1484 79.293 69.8047 79.293C67.5488 79.293 65.7373 78.6191 64.3701 77.2715C63.0029 75.9141 62.2656 74.0781 62.1582 71.7637L62.1436 70.9287ZM67.0801 71.2363C67.0801 72.7012 67.3096 73.7754 67.7686 74.459C68.2275 75.1426 68.9062 75.4844 69.8047 75.4844C71.5625 75.4844 72.4609 74.1318 72.5 71.4268V70.9287C72.5 68.0869 71.5918 66.666 69.7754 66.666C68.125 66.666 67.2314 67.8916 67.0947 70.3428L67.0801 71.2363ZM84.2773 63.1504L84.4385 65.0107C85.5615 63.5752 87.0703 62.8574 88.9648 62.8574C90.9668 62.8574 92.3193 63.6533 93.0225 65.2451C94.0967 63.6533 95.6494 62.8574 97.6807 62.8574C100.894 62.8574 102.544 64.8008 102.632 68.6875V79H97.6807V68.9951C97.6807 68.1846 97.5439 67.5938 97.2705 67.2227C96.9971 66.8516 96.499 66.666 95.7764 66.666C94.7998 66.666 94.0723 67.1006 93.5938 67.9697L93.6084 68.1748V79H88.6572V69.0244C88.6572 68.1943 88.5254 67.5938 88.2617 67.2227C87.998 66.8516 87.4951 66.666 86.7529 66.666C85.8057 66.666 85.083 67.1006 84.585 67.9697V79H79.6484V63.1504H84.2773ZM113.12 79.293C110.688 79.293 108.721 78.5703 107.217 77.125C105.713 75.6699 104.961 73.7803 104.961 71.4561V71.0459C104.961 69.4248 105.259 67.9941 105.854 66.7539C106.46 65.5137 107.339 64.5566 108.491 63.8828C109.644 63.1992 111.011 62.8574 112.593 62.8574C114.819 62.8574 116.577 63.5508 117.866 64.9375C119.155 66.3145 119.8 68.2383 119.8 70.709V72.6279H109.985C110.161 73.5166 110.547 74.2148 111.143 74.7227C111.738 75.2305 112.51 75.4844 113.457 75.4844C115.02 75.4844 116.24 74.9375 117.119 73.8438L119.375 76.5098C118.76 77.3594 117.886 78.0381 116.753 78.5459C115.63 79.0439 114.419 79.293 113.12 79.293ZM112.563 66.666C111.118 66.666 110.259 67.623 109.985 69.5371H114.966V69.1562C114.985 68.3652 114.785 67.7549 114.365 67.3252C113.945 66.8857 113.345 66.666 112.563 66.666ZM126.333 63.1504L126.494 65.0107C127.588 63.5752 129.097 62.8574 131.021 62.8574C132.671 62.8574 133.901 63.3506 134.712 64.3369C135.532 65.3232 135.957 66.8076 135.986 68.79V79H131.035V68.9951C131.035 68.1943 130.874 67.6084 130.552 67.2373C130.229 66.8564 129.644 66.666 128.794 66.666C127.827 66.666 127.109 67.0469 126.641 67.8086V79H121.704V63.1504H126.333ZM147.661 79C147.485 78.6777 147.329 78.2041 147.192 77.5791C146.284 78.7217 145.015 79.293 143.384 79.293C141.89 79.293 140.62 78.8438 139.575 77.9453C138.53 77.0371 138.008 75.8994 138.008 74.5322C138.008 72.8135 138.643 71.5146 139.912 70.6357C141.182 69.7568 143.027 69.3174 145.449 69.3174H146.973V68.4824C146.973 67.0273 146.343 66.2998 145.083 66.2998C143.911 66.2998 143.325 66.876 143.325 68.0283H138.389C138.389 66.4951 139.038 65.25 140.337 64.293C141.646 63.3359 143.311 62.8574 145.332 62.8574C147.354 62.8574 148.95 63.3506 150.122 64.3369C151.294 65.3232 151.895 66.6758 151.924 68.3945V75.4111C151.943 76.8662 152.168 77.9795 152.598 78.751V79H147.661ZM144.57 75.7773C145.186 75.7773 145.693 75.6455 146.094 75.3818C146.504 75.1182 146.797 74.8203 146.973 74.4883V71.9541H145.537C143.818 71.9541 142.959 72.7256 142.959 74.2686C142.959 74.7178 143.11 75.084 143.413 75.3672C143.716 75.6406 144.102 75.7773 144.57 75.7773ZM154.048 70.958C154.048 68.4482 154.59 66.4707 155.674 65.0254C156.758 63.5801 158.271 62.8574 160.215 62.8574C161.631 62.8574 162.822 63.4141 163.789 64.5273V56.5H168.74V79H164.302L164.053 77.3008C163.037 78.6289 161.748 79.293 160.186 79.293C158.301 79.293 156.807 78.5703 155.703 77.125C154.6 75.6797 154.048 73.624 154.048 70.958ZM158.984 71.2656C158.984 74.0781 159.805 75.4844 161.445 75.4844C162.539 75.4844 163.32 75.0254 163.789 74.1074V68.0723C163.34 67.1348 162.568 66.666 161.475 66.666C159.951 66.666 159.126 67.8965 158.999 70.3574L158.984 71.2656ZM179.214 79.293C176.782 79.293 174.814 78.5703 173.311 77.125C171.807 75.6699 171.055 73.7803 171.055 71.4561V71.0459C171.055 69.4248 171.353 67.9941 171.948 66.7539C172.554 65.5137 173.433 64.5566 174.585 63.8828C175.737 63.1992 177.104 62.8574 178.687 62.8574C180.913 62.8574 182.671 63.5508 183.96 64.9375C185.249 66.3145 185.894 68.2383 185.894 70.709V72.6279H176.079C176.255 73.5166 176.641 74.2148 177.236 74.7227C177.832 75.2305 178.604 75.4844 179.551 75.4844C181.113 75.4844 182.334 74.9375 183.213 73.8438L185.469 76.5098C184.854 77.3594 183.979 78.0381 182.847 78.5459C181.724 79.0439 180.513 79.293 179.214 79.293ZM178.657 66.666C177.212 66.666 176.353 67.623 176.079 69.5371H181.06V69.1562C181.079 68.3652 180.879 67.7549 180.459 67.3252C180.039 66.8857 179.438 66.666 178.657 66.666ZM196.191 74.5469C196.191 74.127 195.972 73.79 195.532 73.5361C195.093 73.2822 194.258 73.0186 193.027 72.7451C191.797 72.4717 190.781 72.1152 189.98 71.6758C189.18 71.2266 188.569 70.6846 188.149 70.0498C187.729 69.415 187.52 68.6875 187.52 67.8672C187.52 66.4121 188.12 65.2158 189.321 64.2783C190.522 63.3311 192.095 62.8574 194.038 62.8574C196.128 62.8574 197.808 63.3311 199.077 64.2783C200.347 65.2256 200.981 66.4707 200.981 68.0137H196.03C196.03 66.7441 195.361 66.1094 194.023 66.1094C193.506 66.1094 193.071 66.2559 192.72 66.5488C192.368 66.832 192.192 67.1885 192.192 67.6182C192.192 68.0576 192.407 68.4141 192.837 68.6875C193.267 68.9609 193.95 69.1855 194.888 69.3613C195.835 69.5371 196.665 69.7471 197.378 69.9912C199.761 70.8115 200.952 72.2812 200.952 74.4004C200.952 75.8457 200.308 77.0225 199.019 77.9307C197.739 78.8389 196.079 79.293 194.038 79.293C192.681 79.293 191.47 79.0488 190.405 78.5605C189.341 78.0723 188.511 77.4082 187.915 76.5684C187.319 75.7285 187.021 74.8447 187.021 73.917H191.636C191.655 74.6494 191.899 75.1865 192.368 75.5283C192.837 75.8604 193.438 76.0264 194.17 76.0264C194.844 76.0264 195.347 75.8896 195.679 75.6162C196.021 75.3428 196.191 74.9863 196.191 74.5469ZM218.413 79.293C215.981 79.293 214.014 78.5703 212.51 77.125C211.006 75.6699 210.254 73.7803 210.254 71.4561V71.0459C210.254 69.4248 210.552 67.9941 211.147 66.7539C211.753 65.5137 212.632 64.5566 213.784 63.8828C214.937 63.1992 216.304 62.8574 217.886 62.8574C220.112 62.8574 221.87 63.5508 223.159 64.9375C224.448 66.3145 225.093 68.2383 225.093 70.709V72.6279H215.278C215.454 73.5166 215.84 74.2148 216.436 74.7227C217.031 75.2305 217.803 75.4844 218.75 75.4844C220.312 75.4844 221.533 74.9375 222.412 73.8438L224.668 76.5098C224.053 77.3594 223.179 78.0381 222.046 78.5459C220.923 79.0439 219.712 79.293 218.413 79.293ZM217.856 66.666C216.411 66.666 215.552 67.623 215.278 69.5371H220.259V69.1562C220.278 68.3652 220.078 67.7549 219.658 67.3252C219.238 66.8857 218.638 66.666 217.856 66.666ZM231.626 63.1504L231.787 65.0107C232.881 63.5752 234.39 62.8574 236.313 62.8574C237.964 62.8574 239.194 63.3506 240.005 64.3369C240.825 65.3232 241.25 66.8076 241.279 68.79V79H236.328V68.9951C236.328 68.1943 236.167 67.6084 235.845 67.2373C235.522 66.8564 234.937 66.666 234.087 66.666C233.12 66.666 232.402 67.0469 231.934 67.8086V79H226.997V63.1504H231.626ZM265.156 70.5039H256.865V79H251.724V57.6719H265.991V61.6416H256.865V66.5488H265.156V70.5039ZM266.958 70.9287C266.958 69.3467 267.266 67.9404 267.881 66.71C268.496 65.4697 269.38 64.5176 270.532 63.8535C271.685 63.1895 273.037 62.8574 274.59 62.8574C276.963 62.8574 278.833 63.5947 280.2 65.0693C281.567 66.5342 282.251 68.5312 282.251 71.0605V71.2363C282.251 73.707 281.562 75.6699 280.186 77.125C278.818 78.5703 276.963 79.293 274.619 79.293C272.363 79.293 270.552 78.6191 269.185 77.2715C267.817 75.9141 267.08 74.0781 266.973 71.7637L266.958 70.9287ZM271.895 71.2363C271.895 72.7012 272.124 73.7754 272.583 74.459C273.042 75.1426 273.721 75.4844 274.619 75.4844C276.377 75.4844 277.275 74.1318 277.314 71.4268V70.9287C277.314 68.0869 276.406 66.666 274.59 66.666C272.939 66.666 272.046 67.8916 271.909 70.3428L271.895 71.2363ZM294.014 67.6182L292.388 67.501C290.835 67.501 289.839 67.9893 289.399 68.9658V79H284.463V63.1504H289.092L289.253 65.1865C290.083 63.6338 291.24 62.8574 292.725 62.8574C293.252 62.8574 293.711 62.916 294.102 63.0332L294.014 67.6182ZM303.169 79.293C300.737 79.293 298.77 78.5703 297.266 77.125C295.762 75.6699 295.01 73.7803 295.01 71.4561V71.0459C295.01 69.4248 295.308 67.9941 295.903 66.7539C296.509 65.5137 297.388 64.5566 298.54 63.8828C299.692 63.1992 301.06 62.8574 302.642 62.8574C304.868 62.8574 306.626 63.5508 307.915 64.9375C309.204 66.3145 309.849 68.2383 309.849 70.709V72.6279H300.034C300.21 73.5166 300.596 74.2148 301.191 74.7227C301.787 75.2305 302.559 75.4844 303.506 75.4844C305.068 75.4844 306.289 74.9375 307.168 73.8438L309.424 76.5098C308.809 77.3594 307.935 78.0381 306.802 78.5459C305.679 79.0439 304.468 79.293 303.169 79.293ZM302.612 66.666C301.167 66.666 300.308 67.623 300.034 69.5371H305.015V69.1562C305.034 68.3652 304.834 67.7549 304.414 67.3252C303.994 66.8857 303.394 66.666 302.612 66.666ZM308.149 60.6016V60.792H304.253L301.924 58.7998L299.595 60.792H295.786V60.543L300.518 56.4854H303.345L308.149 60.6016ZM317.598 59.21V63.1504H320.205V66.5781H317.598V73.8291C317.598 74.4248 317.705 74.8398 317.92 75.0742C318.135 75.3086 318.56 75.4258 319.194 75.4258C319.683 75.4258 320.093 75.3965 320.425 75.3379V78.8682C319.536 79.1514 318.608 79.293 317.642 79.293C315.942 79.293 314.688 78.8926 313.877 78.0918C313.066 77.291 312.661 76.0752 312.661 74.4443V66.5781H310.64V63.1504H312.661V59.21H317.598Z" fill="black"/>
<defs>
<filter id="filter0_df" x="0" y="0" width="490" height="345" filterUnits="userSpaceOnUse" color-interpolation-filters="sRGB">
<feFlood flood-opacity="0" result="BackgroundImageFix"/>
<feColorMatrix in="SourceAlpha" type="matrix" values="0 0 0 0 0 0 0 0 0 0 0 0 0 0 0 0 0 0 127 0"/>
<feOffset dx="30" dy="30"/>
<feGaussianBlur stdDeviation="15"/>
<feColorMatrix type="matrix" values="0 0 0 0 0 0 0 0 0 0 0 0 0 0 0 0 0 0 0.3 0"/>
<feBlend mode="normal" in2="BackgroundImageFix" result="effect1_dropShadow"/>
<feBlend mode="normal" in="SourceGraphic" in2="effect1_dropShadow" result="shape"/>
<feGaussianBlur stdDeviation="5" result="effect2_foregroundBlur"/>
</filter>
<linearGradient id="paint0_linear" x1="10" y1="10" x2="448.609" y2="251.155" gradientUnits="userSpaceOnUse">
<stop stop-color="#BA2F4C"/>
<stop offset="1" stop-color="#3672F8"/>
</linearGradient>
</defs>
</svg>
