<svg width="460" height="310" viewBox="0 0 460 310" fill="none" xmlns="http://www.w3.org/2000/svg">
<g opacity="0.9" filter="url(#filter0_df)">
<rect x="15" y="15" width="400" height="250" rx="10" fill="url(#paint0_linear)"/>
</g>
<path d="M206.865 214.296C205.418 213.88 204.363 213.37 203.701 212.767C203.045 212.157 202.717 211.407 202.717 210.517C202.717 209.509 203.118 208.677 203.921 208.021C204.729 207.358 205.778 207.027 207.067 207.027C207.946 207.027 208.729 207.197 209.414 207.537C210.105 207.877 210.639 208.346 211.014 208.943C211.395 209.541 211.585 210.194 211.585 210.903H209.889C209.889 210.13 209.643 209.523 209.15 209.084C208.658 208.639 207.964 208.416 207.067 208.416C206.235 208.416 205.585 208.601 205.116 208.97C204.653 209.333 204.422 209.84 204.422 210.49C204.422 211.012 204.642 211.454 205.081 211.817C205.526 212.175 206.279 212.503 207.34 212.802C208.406 213.101 209.238 213.432 209.836 213.795C210.439 214.152 210.885 214.571 211.172 215.052C211.465 215.532 211.611 216.098 211.611 216.748C211.611 217.785 211.207 218.617 210.398 219.244C209.59 219.865 208.509 220.176 207.155 220.176C206.276 220.176 205.456 220.009 204.694 219.675C203.933 219.335 203.344 218.872 202.928 218.286C202.518 217.7 202.312 217.035 202.312 216.291H204.009C204.009 217.064 204.293 217.677 204.861 218.128C205.436 218.573 206.2 218.796 207.155 218.796C208.046 218.796 208.729 218.614 209.203 218.251C209.678 217.888 209.915 217.393 209.915 216.766C209.915 216.139 209.695 215.655 209.256 215.315C208.816 214.97 208.02 214.63 206.865 214.296ZM220.849 216.66H215.487L214.283 220H212.543L217.43 207.203H218.906L223.802 220H222.07L220.849 216.66ZM215.997 215.271H220.348L218.168 209.286L215.997 215.271ZM227.704 207.203L231.888 217.645L236.071 207.203H238.26V220H236.572V215.017L236.73 209.638L232.529 220H231.237L227.045 209.664L227.212 215.017V220H225.524V207.203H227.704ZM248.473 214.085H242.927V218.62H249.369V220H241.239V207.203H249.281V208.592H242.927V212.705H248.473V214.085ZM251.47 220V207.203H255.082C256.195 207.203 257.18 207.449 258.035 207.941C258.891 208.434 259.55 209.134 260.013 210.042C260.481 210.95 260.719 211.993 260.725 213.171V213.988C260.725 215.195 260.49 216.253 260.021 217.161C259.559 218.069 258.894 218.767 258.026 219.253C257.165 219.739 256.16 219.988 255.012 220H251.47ZM253.157 208.592V218.62H254.933C256.233 218.62 257.244 218.216 257.965 217.407C258.691 216.599 259.055 215.447 259.055 213.953V213.206C259.055 211.753 258.712 210.625 258.026 209.822C257.347 209.014 256.38 208.604 255.126 208.592H253.157ZM265.093 220H263.405V207.203H265.093V220ZM272.722 221.099H271.324L276.668 207.203H278.057L272.722 221.099ZM284.534 220V207.203H288.146C289.26 207.203 290.244 207.449 291.1 207.941C291.955 208.434 292.614 209.134 293.077 210.042C293.546 210.95 293.783 211.993 293.789 213.171V213.988C293.789 215.195 293.555 216.253 293.086 217.161C292.623 218.069 291.958 218.767 291.091 219.253C290.229 219.739 289.225 219.988 288.076 220H284.534ZM286.222 208.592V218.62H287.997C289.298 218.62 290.309 218.216 291.029 217.407C291.756 216.599 292.119 215.447 292.119 213.953V213.206C292.119 211.753 291.776 210.625 291.091 209.822C290.411 209.014 289.444 208.604 288.19 208.592H286.222ZM298.157 220H296.47V207.203H298.157V220ZM303.431 207.203L307.614 217.645L311.798 207.203H313.986V220H312.299V215.017L312.457 209.638L308.256 220H306.964L302.771 209.664L302.938 215.017V220H301.251V207.203H303.431ZM324.19 216.66H318.829L317.625 220H315.885L320.771 207.203H322.248L327.144 220H325.412L324.19 216.66ZM319.339 215.271H323.689L321.51 209.286L319.339 215.271ZM338.701 220H337.005L330.562 210.139V220H328.866V207.203H330.562L337.022 217.108V207.203H338.701V220ZM351.111 215.939C350.953 217.293 350.452 218.339 349.608 219.077C348.771 219.81 347.654 220.176 346.26 220.176C344.748 220.176 343.535 219.634 342.621 218.55C341.713 217.466 341.259 216.016 341.259 214.199V212.969C341.259 211.779 341.47 210.733 341.892 209.831C342.319 208.929 342.923 208.237 343.702 207.757C344.481 207.271 345.384 207.027 346.409 207.027C347.769 207.027 348.858 207.408 349.679 208.17C350.499 208.926 350.977 209.975 351.111 211.316H349.415C349.269 210.297 348.949 209.559 348.457 209.102C347.971 208.645 347.288 208.416 346.409 208.416C345.331 208.416 344.484 208.814 343.869 209.611C343.26 210.408 342.955 211.542 342.955 213.013V214.252C342.955 215.641 343.245 216.745 343.825 217.565C344.405 218.386 345.217 218.796 346.26 218.796C347.197 218.796 347.915 218.585 348.413 218.163C348.917 217.735 349.251 216.994 349.415 215.939H351.111ZM363.258 220H361.562V214.085H355.11V220H353.423V207.203H355.11V212.705H361.562V207.203H363.258V220ZM373.488 214.085H367.942V218.62H374.385V220H366.255V207.203H374.297V208.592H367.942V212.705H373.488V214.085Z" fill="black"/>
<path d="M41.7529 82.7637V90H36.6113V68.6719H45.1221C46.7529 68.6719 48.1934 68.9746 49.4434 69.5801C50.7031 70.1758 51.6748 71.0303 52.3584 72.1436C53.0518 73.2471 53.3984 74.502 53.3984 75.9082C53.3984 77.9883 52.6514 79.6533 51.1572 80.9033C49.6729 82.1436 47.6318 82.7637 45.0342 82.7637H41.7529ZM41.7529 78.7939H45.1221C46.1182 78.7939 46.875 78.5449 47.3926 78.0469C47.9199 77.5488 48.1836 76.8457 48.1836 75.9375C48.1836 74.9414 47.915 74.1455 47.3779 73.5498C46.8408 72.9541 46.1084 72.6514 45.1807 72.6416H41.7529V78.7939ZM65.5127 78.6182L63.8867 78.501C62.334 78.501 61.3379 78.9893 60.8984 79.9658V90H55.9619V74.1504H60.5908L60.752 76.1865C61.582 74.6338 62.7393 73.8574 64.2236 73.8574C64.751 73.8574 65.21 73.916 65.6006 74.0332L65.5127 78.6182ZM66.1426 81.9287C66.1426 80.3467 66.4502 78.9404 67.0654 77.71C67.6807 76.4697 68.5645 75.5176 69.7168 74.8535C70.8691 74.1895 72.2217 73.8574 73.7744 73.8574C76.1475 73.8574 78.0176 74.5947 79.3848 76.0693C80.752 77.5342 81.4355 79.5312 81.4355 82.0605V82.2363C81.4355 84.707 80.7471 86.6699 79.3701 88.125C78.0029 89.5703 76.1475 90.293 73.8037 90.293C71.5479 90.293 69.7363 89.6191 68.3691 88.2715C67.002 86.9141 66.2646 85.0781 66.1572 82.7637L66.1426 81.9287ZM71.0791 82.2363C71.0791 83.7012 71.3086 84.7754 71.7676 85.459C72.2266 86.1426 72.9053 86.4844 73.8037 86.4844C75.5615 86.4844 76.46 85.1318 76.499 82.4268V81.9287C76.499 79.0869 75.5908 77.666 73.7744 77.666C72.124 77.666 71.2305 78.8916 71.0938 81.3428L71.0791 82.2363ZM88.2764 74.1504L88.4375 76.0107C89.5605 74.5752 91.0693 73.8574 92.9639 73.8574C94.9658 73.8574 96.3184 74.6533 97.0215 76.2451C98.0957 74.6533 99.6484 73.8574 101.68 73.8574C104.893 73.8574 106.543 75.8008 106.631 79.6875V90H101.68V79.9951C101.68 79.1846 101.543 78.5938 101.27 78.2227C100.996 77.8516 100.498 77.666 99.7754 77.666C98.7988 77.666 98.0713 78.1006 97.5928 78.9697L97.6074 79.1748V90H92.6562V80.0244C92.6562 79.1943 92.5244 78.5938 92.2607 78.2227C91.9971 77.8516 91.4941 77.666 90.752 77.666C89.8047 77.666 89.082 78.1006 88.584 78.9697V90H83.6475V74.1504H88.2764ZM117.119 90.293C114.688 90.293 112.72 89.5703 111.216 88.125C109.712 86.6699 108.96 84.7803 108.96 82.4561V82.0459C108.96 80.4248 109.258 78.9941 109.854 77.7539C110.459 76.5137 111.338 75.5566 112.49 74.8828C113.643 74.1992 115.01 73.8574 116.592 73.8574C118.818 73.8574 120.576 74.5508 121.865 75.9375C123.154 77.3145 123.799 79.2383 123.799 81.709V83.6279H113.984C114.16 84.5166 114.546 85.2148 115.142 85.7227C115.737 86.2305 116.509 86.4844 117.456 86.4844C119.019 86.4844 120.239 85.9375 121.118 84.8438L123.374 87.5098C122.759 88.3594 121.885 89.0381 120.752 89.5459C119.629 90.0439 118.418 90.293 117.119 90.293ZM116.562 77.666C115.117 77.666 114.258 78.623 113.984 80.5371H118.965V80.1562C118.984 79.3652 118.784 78.7549 118.364 78.3252C117.944 77.8857 117.344 77.666 116.562 77.666ZM130.332 74.1504L130.493 76.0107C131.587 74.5752 133.096 73.8574 135.02 73.8574C136.67 73.8574 137.9 74.3506 138.711 75.3369C139.531 76.3232 139.956 77.8076 139.985 79.79V90H135.034V79.9951C135.034 79.1943 134.873 78.6084 134.551 78.2373C134.229 77.8564 133.643 77.666 132.793 77.666C131.826 77.666 131.108 78.0469 130.64 78.8086V90H125.703V74.1504H130.332ZM151.66 90C151.484 89.6777 151.328 89.2041 151.191 88.5791C150.283 89.7217 149.014 90.293 147.383 90.293C145.889 90.293 144.619 89.8438 143.574 88.9453C142.529 88.0371 142.007 86.8994 142.007 85.5322C142.007 83.8135 142.642 82.5146 143.911 81.6357C145.181 80.7568 147.026 80.3174 149.448 80.3174H150.972V79.4824C150.972 78.0273 150.342 77.2998 149.082 77.2998C147.91 77.2998 147.324 77.876 147.324 79.0283H142.388C142.388 77.4951 143.037 76.25 144.336 75.293C145.645 74.3359 147.31 73.8574 149.331 73.8574C151.353 73.8574 152.949 74.3506 154.121 75.3369C155.293 76.3232 155.894 77.6758 155.923 79.3945V86.4111C155.942 87.8662 156.167 88.9795 156.597 89.751V90H151.66ZM148.569 86.7773C149.185 86.7773 149.692 86.6455 150.093 86.3818C150.503 86.1182 150.796 85.8203 150.972 85.4883V82.9541H149.536C147.817 82.9541 146.958 83.7256 146.958 85.2686C146.958 85.7178 147.109 86.084 147.412 86.3672C147.715 86.6406 148.101 86.7773 148.569 86.7773ZM158.047 81.958C158.047 79.4482 158.589 77.4707 159.673 76.0254C160.757 74.5801 162.271 73.8574 164.214 73.8574C165.63 73.8574 166.821 74.4141 167.788 75.5273V67.5H172.739V90H168.301L168.052 88.3008C167.036 89.6289 165.747 90.293 164.185 90.293C162.3 90.293 160.806 89.5703 159.702 88.125C158.599 86.6797 158.047 84.624 158.047 81.958ZM162.983 82.2656C162.983 85.0781 163.804 86.4844 165.444 86.4844C166.538 86.4844 167.319 86.0254 167.788 85.1074V79.0723C167.339 78.1348 166.567 77.666 165.474 77.666C163.95 77.666 163.125 78.8965 162.998 81.3574L162.983 82.2656ZM183.213 90.293C180.781 90.293 178.813 89.5703 177.31 88.125C175.806 86.6699 175.054 84.7803 175.054 82.4561V82.0459C175.054 80.4248 175.352 78.9941 175.947 77.7539C176.553 76.5137 177.432 75.5566 178.584 74.8828C179.736 74.1992 181.104 73.8574 182.686 73.8574C184.912 73.8574 186.67 74.5508 187.959 75.9375C189.248 77.3145 189.893 79.2383 189.893 81.709V83.6279H180.078C180.254 84.5166 180.64 85.2148 181.235 85.7227C181.831 86.2305 182.603 86.4844 183.55 86.4844C185.112 86.4844 186.333 85.9375 187.212 84.8438L189.468 87.5098C188.853 88.3594 187.979 89.0381 186.846 89.5459C185.723 90.0439 184.512 90.293 183.213 90.293ZM182.656 77.666C181.211 77.666 180.352 78.623 180.078 80.5371H185.059V80.1562C185.078 79.3652 184.878 78.7549 184.458 78.3252C184.038 77.8857 183.438 77.666 182.656 77.666ZM200.19 85.5469C200.19 85.127 199.971 84.79 199.531 84.5361C199.092 84.2822 198.257 84.0186 197.026 83.7451C195.796 83.4717 194.78 83.1152 193.979 82.6758C193.179 82.2266 192.568 81.6846 192.148 81.0498C191.729 80.415 191.519 79.6875 191.519 78.8672C191.519 77.4121 192.119 76.2158 193.32 75.2783C194.521 74.3311 196.094 73.8574 198.037 73.8574C200.127 73.8574 201.807 74.3311 203.076 75.2783C204.346 76.2256 204.98 77.4707 204.98 79.0137H200.029C200.029 77.7441 199.36 77.1094 198.022 77.1094C197.505 77.1094 197.07 77.2559 196.719 77.5488C196.367 77.832 196.191 78.1885 196.191 78.6182C196.191 79.0576 196.406 79.4141 196.836 79.6875C197.266 79.9609 197.949 80.1855 198.887 80.3613C199.834 80.5371 200.664 80.7471 201.377 80.9912C203.76 81.8115 204.951 83.2812 204.951 85.4004C204.951 86.8457 204.307 88.0225 203.018 88.9307C201.738 89.8389 200.078 90.293 198.037 90.293C196.68 90.293 195.469 90.0488 194.404 89.5605C193.34 89.0723 192.51 88.4082 191.914 87.5684C191.318 86.7285 191.021 85.8447 191.021 84.917H195.635C195.654 85.6494 195.898 86.1865 196.367 86.5283C196.836 86.8604 197.437 87.0264 198.169 87.0264C198.843 87.0264 199.346 86.8896 199.678 86.6162C200.02 86.3428 200.19 85.9863 200.19 85.5469ZM222.412 90.293C219.98 90.293 218.013 89.5703 216.509 88.125C215.005 86.6699 214.253 84.7803 214.253 82.4561V82.0459C214.253 80.4248 214.551 78.9941 215.146 77.7539C215.752 76.5137 216.631 75.5566 217.783 74.8828C218.936 74.1992 220.303 73.8574 221.885 73.8574C224.111 73.8574 225.869 74.5508 227.158 75.9375C228.447 77.3145 229.092 79.2383 229.092 81.709V83.6279H219.277C219.453 84.5166 219.839 85.2148 220.435 85.7227C221.03 86.2305 221.802 86.4844 222.749 86.4844C224.312 86.4844 225.532 85.9375 226.411 84.8438L228.667 87.5098C228.052 88.3594 227.178 89.0381 226.045 89.5459C224.922 90.0439 223.711 90.293 222.412 90.293ZM221.855 77.666C220.41 77.666 219.551 78.623 219.277 80.5371H224.258V80.1562C224.277 79.3652 224.077 78.7549 223.657 78.3252C223.237 77.8857 222.637 77.666 221.855 77.666ZM235.625 74.1504L235.786 76.0107C236.88 74.5752 238.389 73.8574 240.312 73.8574C241.963 73.8574 243.193 74.3506 244.004 75.3369C244.824 76.3232 245.249 77.8076 245.278 79.79V90H240.327V79.9951C240.327 79.1943 240.166 78.6084 239.844 78.2373C239.521 77.8564 238.936 77.666 238.086 77.666C237.119 77.666 236.401 78.0469 235.933 78.8086V90H230.996V74.1504H235.625ZM269.155 81.5039H260.864V90H255.723V68.6719H269.99V72.6416H260.864V77.5488H269.155V81.5039ZM270.957 81.9287C270.957 80.3467 271.265 78.9404 271.88 77.71C272.495 76.4697 273.379 75.5176 274.531 74.8535C275.684 74.1895 277.036 73.8574 278.589 73.8574C280.962 73.8574 282.832 74.5947 284.199 76.0693C285.566 77.5342 286.25 79.5312 286.25 82.0605V82.2363C286.25 84.707 285.562 86.6699 284.185 88.125C282.817 89.5703 280.962 90.293 278.618 90.293C276.362 90.293 274.551 89.6191 273.184 88.2715C271.816 86.9141 271.079 85.0781 270.972 82.7637L270.957 81.9287ZM275.894 82.2363C275.894 83.7012 276.123 84.7754 276.582 85.459C277.041 86.1426 277.72 86.4844 278.618 86.4844C280.376 86.4844 281.274 85.1318 281.313 82.4268V81.9287C281.313 79.0869 280.405 77.666 278.589 77.666C276.938 77.666 276.045 78.8916 275.908 81.3428L275.894 82.2363ZM298.013 78.6182L296.387 78.501C294.834 78.501 293.838 78.9893 293.398 79.9658V90H288.462V74.1504H293.091L293.252 76.1865C294.082 74.6338 295.239 73.8574 296.724 73.8574C297.251 73.8574 297.71 73.916 298.101 74.0332L298.013 78.6182ZM307.168 90.293C304.736 90.293 302.769 89.5703 301.265 88.125C299.761 86.6699 299.009 84.7803 299.009 82.4561V82.0459C299.009 80.4248 299.307 78.9941 299.902 77.7539C300.508 76.5137 301.387 75.5566 302.539 74.8828C303.691 74.1992 305.059 73.8574 306.641 73.8574C308.867 73.8574 310.625 74.5508 311.914 75.9375C313.203 77.3145 313.848 79.2383 313.848 81.709V83.6279H304.033C304.209 84.5166 304.595 85.2148 305.19 85.7227C305.786 86.2305 306.558 86.4844 307.505 86.4844C309.067 86.4844 310.288 85.9375 311.167 84.8438L313.423 87.5098C312.808 88.3594 311.934 89.0381 310.801 89.5459C309.678 90.0439 308.467 90.293 307.168 90.293ZM306.611 77.666C305.166 77.666 304.307 78.623 304.033 80.5371H309.014V80.1562C309.033 79.3652 308.833 78.7549 308.413 78.3252C307.993 77.8857 307.393 77.666 306.611 77.666ZM312.148 71.6016V71.792H308.252L305.923 69.7998L303.594 71.792H299.785V71.543L304.517 67.4854H307.344L312.148 71.6016ZM321.597 70.21V74.1504H324.204V77.5781H321.597V84.8291C321.597 85.4248 321.704 85.8398 321.919 86.0742C322.134 86.3086 322.559 86.4258 323.193 86.4258C323.682 86.4258 324.092 86.3965 324.424 86.3379V89.8682C323.535 90.1514 322.607 90.293 321.641 90.293C319.941 90.293 318.687 89.8926 317.876 89.0918C317.065 88.291 316.66 87.0752 316.66 85.4443V77.5781H314.639V74.1504H316.66V70.21H321.597Z" fill="black"/>
<defs>
<filter id="filter0_df" x="0" y="0" width="460" height="310" filterUnits="userSpaceOnUse" color-interpolation-filters="sRGB">
<feFlood flood-opacity="0" result="BackgroundImageFix"/>
<feColorMatrix in="SourceAlpha" type="matrix" values="0 0 0 0 0 0 0 0 0 0 0 0 0 0 0 0 0 0 127 0"/>
<feOffset dx="15" dy="15"/>
<feGaussianBlur stdDeviation="15"/>
<feColorMatrix type="matrix" values="0 0 0 0 0 0 0 0 0 0 0 0 0 0 0 0 0 0 0.15 0"/>
<feBlend mode="normal" in2="BackgroundImageFix" result="effect1_dropShadow"/>
<feBlend mode="normal" in="SourceGraphic" in2="effect1_dropShadow" result="shape"/>
<feGaussianBlur stdDeviation="5" result="effect2_foregroundBlur"/>
</filter>
<linearGradient id="paint0_linear" x1="15" y1="15" x2="423.477" y2="250.283" gradientUnits="userSpaceOnUse">
<stop stop-color="#BA2F4C"/>
<stop offset="1" stop-color="#0B849E"/>
</linearGradient>
</defs>
</svg>
