<svg width="490" height="345" viewBox="0 0 490 345" fill="none" xmlns="http://www.w3.org/2000/svg">
<g filter="url(#filter0_df)">
<rect x="10" y="10" width="420" height="275" rx="10" fill="url(#paint0_linear)"/>
</g>
<path d="M336.241 225.203L340.425 235.645L344.608 225.203H346.797V238H345.109V233.017L345.268 227.638L341.066 238H339.774L335.582 227.664L335.749 233.017V238H334.062V225.203H336.241ZM357.001 234.66H351.64L350.436 238H348.695L353.582 225.203H355.059L359.954 238H358.223L357.001 234.66ZM352.149 233.271H356.5L354.32 227.286L352.149 233.271ZM366.37 232.823H363.364V238H361.668V225.203H365.904C367.346 225.203 368.453 225.531 369.227 226.188C370.006 226.844 370.396 227.799 370.396 229.053C370.396 229.85 370.179 230.544 369.745 231.136C369.317 231.728 368.72 232.17 367.952 232.463L370.958 237.895V238H369.147L366.37 232.823ZM363.364 231.443H365.957C366.795 231.443 367.46 231.227 367.952 230.793C368.45 230.359 368.699 229.779 368.699 229.053C368.699 228.262 368.462 227.655 367.987 227.233C367.519 226.812 366.839 226.598 365.948 226.592H363.364V231.443ZM372.769 238V225.203H376.381C377.494 225.203 378.479 225.449 379.334 225.941C380.189 226.434 380.849 227.134 381.312 228.042C381.78 228.95 382.018 229.993 382.023 231.171V231.988C382.023 233.195 381.789 234.253 381.32 235.161C380.857 236.069 380.192 236.767 379.325 237.253C378.464 237.739 377.459 237.988 376.311 238H372.769ZM374.456 226.592V236.62H376.231C377.532 236.62 378.543 236.216 379.264 235.407C379.99 234.599 380.354 233.447 380.354 231.953V231.206C380.354 229.753 380.011 228.625 379.325 227.822C378.646 227.014 377.679 226.604 376.425 226.592H374.456ZM386.392 238H384.704V225.203H386.392V238Z" fill="black"/>
<path d="M43.6133 73.3311C43.6133 72.5791 43.3447 71.9932 42.8076 71.5732C42.2803 71.1533 41.3477 70.7188 40.0098 70.2695C38.6719 69.8203 37.5781 69.3857 36.7285 68.9658C33.9648 67.6084 32.583 65.7432 32.583 63.3701C32.583 62.1885 32.9248 61.1484 33.6084 60.25C34.3018 59.3418 35.2783 58.6387 36.5381 58.1406C37.7979 57.6328 39.2139 57.3789 40.7861 57.3789C42.3193 57.3789 43.6914 57.6523 44.9023 58.1992C46.123 58.7461 47.0703 59.5273 47.7441 60.543C48.418 61.5488 48.7549 62.7012 48.7549 64H43.6279C43.6279 63.1309 43.3594 62.457 42.8223 61.9785C42.2949 61.5 41.5771 61.2607 40.6689 61.2607C39.751 61.2607 39.0234 61.4658 38.4863 61.876C37.959 62.2764 37.6953 62.7891 37.6953 63.4141C37.6953 63.9609 37.9883 64.459 38.5742 64.9082C39.1602 65.3477 40.1904 65.8066 41.665 66.2852C43.1396 66.7539 44.3506 67.2617 45.2979 67.8086C47.6025 69.1367 48.7549 70.9678 48.7549 73.3018C48.7549 75.167 48.0518 76.6318 46.6455 77.6963C45.2393 78.7607 43.3105 79.293 40.8594 79.293C39.1309 79.293 37.5635 78.9854 36.1572 78.3701C34.7607 77.7451 33.7061 76.8955 32.9932 75.8213C32.29 74.7373 31.9385 73.4922 31.9385 72.0859H37.0947C37.0947 73.2285 37.3877 74.0732 37.9736 74.6201C38.5693 75.1572 39.5312 75.4258 40.8594 75.4258C41.709 75.4258 42.3779 75.2451 42.8662 74.8838C43.3643 74.5127 43.6133 73.9951 43.6133 73.3311ZM60.6055 77.2861C59.5605 78.624 58.1494 79.293 56.3721 79.293C54.6338 79.293 53.3154 78.79 52.417 77.7842C51.5283 76.7686 51.084 75.3135 51.084 73.4189V63.1504H56.0205V73.4482C56.0205 74.8057 56.6797 75.4844 57.998 75.4844C59.1309 75.4844 59.9365 75.0791 60.415 74.2686V63.1504H65.3809V79H60.752L60.6055 77.2861ZM77.6855 67.6182L76.0596 67.501C74.5068 67.501 73.5107 67.9893 73.0713 68.9658V79H68.1348V63.1504H72.7637L72.9248 65.1865C73.7549 63.6338 74.9121 62.8574 76.3965 62.8574C76.9238 62.8574 77.3828 62.916 77.7734 63.0332L77.6855 67.6182ZM94.1797 71.1924C94.1797 73.6533 93.623 75.6211 92.5098 77.0957C91.4062 78.5605 89.9121 79.293 88.0273 79.293C86.5723 79.293 85.376 78.7607 84.4385 77.6963V85.0938H79.502V63.1504H84.1162L84.2627 64.6152C85.21 63.4434 86.4551 62.8574 87.998 62.8574C89.9512 62.8574 91.4697 63.5801 92.5537 65.0254C93.6377 66.4609 94.1797 68.4385 94.1797 70.958V71.1924ZM89.2432 70.8848C89.2432 68.0723 88.4229 66.666 86.7822 66.666C85.6104 66.666 84.8291 67.0859 84.4385 67.9258V74.166C84.8682 75.0449 85.6592 75.4844 86.8115 75.4844C88.3838 75.4844 89.1943 74.127 89.2432 71.4121V70.8848ZM105.957 67.6182L104.331 67.501C102.778 67.501 101.782 67.9893 101.343 68.9658V79H96.4062V63.1504H101.035L101.196 65.1865C102.026 63.6338 103.184 62.8574 104.668 62.8574C105.195 62.8574 105.654 62.916 106.045 63.0332L105.957 67.6182ZM112.944 79H107.993V63.1504H112.944V79ZM107.7 59.0635C107.7 58.3604 107.954 57.7842 108.462 57.335C108.97 56.8857 109.629 56.6611 110.439 56.6611C111.25 56.6611 111.909 56.8857 112.417 57.335C112.925 57.7842 113.179 58.3604 113.179 59.0635C113.179 59.7666 112.925 60.3428 112.417 60.792C111.909 61.2412 111.25 61.4658 110.439 61.4658C109.629 61.4658 108.97 61.2412 108.462 60.792C107.954 60.3428 107.7 59.7666 107.7 59.0635ZM124.297 74.5469C124.297 74.127 124.077 73.79 123.638 73.5361C123.198 73.2822 122.363 73.0186 121.133 72.7451C119.902 72.4717 118.887 72.1152 118.086 71.6758C117.285 71.2266 116.675 70.6846 116.255 70.0498C115.835 69.415 115.625 68.6875 115.625 67.8672C115.625 66.4121 116.226 65.2158 117.427 64.2783C118.628 63.3311 120.2 62.8574 122.144 62.8574C124.233 62.8574 125.913 63.3311 127.183 64.2783C128.452 65.2256 129.087 66.4707 129.087 68.0137H124.136C124.136 66.7441 123.467 66.1094 122.129 66.1094C121.611 66.1094 121.177 66.2559 120.825 66.5488C120.474 66.832 120.298 67.1885 120.298 67.6182C120.298 68.0576 120.513 68.4141 120.942 68.6875C121.372 68.9609 122.056 69.1855 122.993 69.3613C123.94 69.5371 124.771 69.7471 125.483 69.9912C127.866 70.8115 129.058 72.2812 129.058 74.4004C129.058 75.8457 128.413 77.0225 127.124 77.9307C125.845 78.8389 124.185 79.293 122.144 79.293C120.786 79.293 119.575 79.0488 118.511 78.5605C117.446 78.0723 116.616 77.4082 116.021 76.5684C115.425 75.7285 115.127 74.8447 115.127 73.917H119.741C119.761 74.6494 120.005 75.1865 120.474 75.5283C120.942 75.8604 121.543 76.0264 122.275 76.0264C122.949 76.0264 123.452 75.8896 123.784 75.6162C124.126 75.3428 124.297 74.9863 124.297 74.5469ZM139.048 79.293C136.616 79.293 134.648 78.5703 133.145 77.125C131.641 75.6699 130.889 73.7803 130.889 71.4561V71.0459C130.889 69.4248 131.187 67.9941 131.782 66.7539C132.388 65.5137 133.267 64.5566 134.419 63.8828C135.571 63.1992 136.938 62.8574 138.521 62.8574C140.747 62.8574 142.505 63.5508 143.794 64.9375C145.083 66.3145 145.728 68.2383 145.728 70.709V72.6279H135.913C136.089 73.5166 136.475 74.2148 137.07 74.7227C137.666 75.2305 138.438 75.4844 139.385 75.4844C140.947 75.4844 142.168 74.9375 143.047 73.8438L145.303 76.5098C144.688 77.3594 143.813 78.0381 142.681 78.5459C141.558 79.0439 140.347 79.293 139.048 79.293ZM138.491 66.666C137.046 66.666 136.187 67.623 135.913 69.5371H140.894V69.1562C140.913 68.3652 140.713 67.7549 140.293 67.3252C139.873 66.8857 139.272 66.666 138.491 66.666ZM156.025 74.5469C156.025 74.127 155.806 73.79 155.366 73.5361C154.927 73.2822 154.092 73.0186 152.861 72.7451C151.631 72.4717 150.615 72.1152 149.814 71.6758C149.014 71.2266 148.403 70.6846 147.983 70.0498C147.563 69.415 147.354 68.6875 147.354 67.8672C147.354 66.4121 147.954 65.2158 149.155 64.2783C150.356 63.3311 151.929 62.8574 153.872 62.8574C155.962 62.8574 157.642 63.3311 158.911 64.2783C160.181 65.2256 160.815 66.4707 160.815 68.0137H155.864C155.864 66.7441 155.195 66.1094 153.857 66.1094C153.34 66.1094 152.905 66.2559 152.554 66.5488C152.202 66.832 152.026 67.1885 152.026 67.6182C152.026 68.0576 152.241 68.4141 152.671 68.6875C153.101 68.9609 153.784 69.1855 154.722 69.3613C155.669 69.5371 156.499 69.7471 157.212 69.9912C159.595 70.8115 160.786 72.2812 160.786 74.4004C160.786 75.8457 160.142 77.0225 158.853 77.9307C157.573 78.8389 155.913 79.293 153.872 79.293C152.515 79.293 151.304 79.0488 150.239 78.5605C149.175 78.0723 148.345 77.4082 147.749 76.5684C147.153 75.7285 146.855 74.8447 146.855 73.917H151.47C151.489 74.6494 151.733 75.1865 152.202 75.5283C152.671 75.8604 153.271 76.0264 154.004 76.0264C154.678 76.0264 155.181 75.8896 155.513 75.6162C155.854 75.3428 156.025 74.9863 156.025 74.5469Z" fill="black"/>
<defs>
<filter id="filter0_df" x="0" y="0" width="490" height="345" filterUnits="userSpaceOnUse" color-interpolation-filters="sRGB">
<feFlood flood-opacity="0" result="BackgroundImageFix"/>
<feColorMatrix in="SourceAlpha" type="matrix" values="0 0 0 0 0 0 0 0 0 0 0 0 0 0 0 0 0 0 127 0"/>
<feOffset dx="30" dy="30"/>
<feGaussianBlur stdDeviation="15"/>
<feColorMatrix type="matrix" values="0 0 0 0 0 0 0 0 0 0 0 0 0 0 0 0 0 0 0.3 0"/>
<feBlend mode="normal" in2="BackgroundImageFix" result="effect1_dropShadow"/>
<feBlend mode="normal" in="SourceGraphic" in2="effect1_dropShadow" result="shape"/>
<feGaussianBlur stdDeviation="5" result="effect2_foregroundBlur"/>
</filter>
<linearGradient id="paint0_linear" x1="10" y1="10" x2="448.609" y2="251.155" gradientUnits="userSpaceOnUse">
<stop stop-color="#BA2F4C"/>
<stop offset="1" stop-color="#3672F8"/>
</linearGradient>
</defs>
</svg>
