<svg width="460" height="310" viewBox="0 0 460 310" fill="none" xmlns="http://www.w3.org/2000/svg">
<g opacity="0.9" filter="url(#filter0_df)">
<rect x="15" y="15" width="400" height="250" rx="10" fill="url(#paint0_linear)"/>
</g>
<path d="M323.241 207.203L327.425 217.645L331.608 207.203H333.797V220H332.109V215.017L332.268 209.638L328.066 220H326.774L322.582 209.664L322.749 215.017V220H321.062V207.203H323.241ZM344.001 216.66H338.64L337.436 220H335.695L340.582 207.203H342.059L346.954 220H345.223L344.001 216.66ZM339.149 215.271H343.5L341.32 209.286L339.149 215.271ZM353.37 214.823H350.364V220H348.668V207.203H352.904C354.346 207.203 355.453 207.531 356.227 208.188C357.006 208.844 357.396 209.799 357.396 211.053C357.396 211.85 357.179 212.544 356.745 213.136C356.317 213.728 355.72 214.17 354.952 214.463L357.958 219.895V220H356.147L353.37 214.823ZM350.364 213.443H352.957C353.795 213.443 354.46 213.227 354.952 212.793C355.45 212.359 355.699 211.779 355.699 211.053C355.699 210.262 355.462 209.655 354.987 209.233C354.519 208.812 353.839 208.598 352.948 208.592H350.364V213.443ZM359.769 220V207.203H363.381C364.494 207.203 365.479 207.449 366.334 207.941C367.189 208.434 367.849 209.134 368.312 210.042C368.78 210.95 369.018 211.993 369.023 213.171V213.988C369.023 215.195 368.789 216.253 368.32 217.161C367.857 218.069 367.192 218.767 366.325 219.253C365.464 219.739 364.459 219.988 363.311 220H359.769ZM361.456 208.592V218.62H363.231C364.532 218.62 365.543 218.216 366.264 217.407C366.99 216.599 367.354 215.447 367.354 213.953V213.206C367.354 211.753 367.011 210.625 366.325 209.822C365.646 209.014 364.679 208.604 363.425 208.592H361.456ZM373.392 220H371.704V207.203H373.392V220Z" fill="black"/>
<path d="M47.6123 84.3311C47.6123 83.5791 47.3438 82.9932 46.8066 82.5732C46.2793 82.1533 45.3467 81.7188 44.0088 81.2695C42.6709 80.8203 41.5771 80.3857 40.7275 79.9658C37.9639 78.6084 36.582 76.7432 36.582 74.3701C36.582 73.1885 36.9238 72.1484 37.6074 71.25C38.3008 70.3418 39.2773 69.6387 40.5371 69.1406C41.7969 68.6328 43.2129 68.3789 44.7852 68.3789C46.3184 68.3789 47.6904 68.6523 48.9014 69.1992C50.1221 69.7461 51.0693 70.5273 51.7432 71.543C52.417 72.5488 52.7539 73.7012 52.7539 75H47.627C47.627 74.1309 47.3584 73.457 46.8213 72.9785C46.2939 72.5 45.5762 72.2607 44.668 72.2607C43.75 72.2607 43.0225 72.4658 42.4854 72.876C41.958 73.2764 41.6943 73.7891 41.6943 74.4141C41.6943 74.9609 41.9873 75.459 42.5732 75.9082C43.1592 76.3477 44.1895 76.8066 45.6641 77.2852C47.1387 77.7539 48.3496 78.2617 49.2969 78.8086C51.6016 80.1367 52.7539 81.9678 52.7539 84.3018C52.7539 86.167 52.0508 87.6318 50.6445 88.6963C49.2383 89.7607 47.3096 90.293 44.8584 90.293C43.1299 90.293 41.5625 89.9854 40.1562 89.3701C38.7598 88.7451 37.7051 87.8955 36.9922 86.8213C36.2891 85.7373 35.9375 84.4922 35.9375 83.0859H41.0938C41.0938 84.2285 41.3867 85.0732 41.9727 85.6201C42.5684 86.1572 43.5303 86.4258 44.8584 86.4258C45.708 86.4258 46.377 86.2451 46.8652 85.8838C47.3633 85.5127 47.6123 84.9951 47.6123 84.3311ZM64.6045 88.2861C63.5596 89.624 62.1484 90.293 60.3711 90.293C58.6328 90.293 57.3145 89.79 56.416 88.7842C55.5273 87.7686 55.083 86.3135 55.083 84.4189V74.1504H60.0195V84.4482C60.0195 85.8057 60.6787 86.4844 61.9971 86.4844C63.1299 86.4844 63.9355 86.0791 64.4141 85.2686V74.1504H69.3799V90H64.751L64.6045 88.2861ZM81.6846 78.6182L80.0586 78.501C78.5059 78.501 77.5098 78.9893 77.0703 79.9658V90H72.1338V74.1504H76.7627L76.9238 76.1865C77.7539 74.6338 78.9111 73.8574 80.3955 73.8574C80.9229 73.8574 81.3818 73.916 81.7725 74.0332L81.6846 78.6182ZM98.1787 82.1924C98.1787 84.6533 97.6221 86.6211 96.5088 88.0957C95.4053 89.5605 93.9111 90.293 92.0264 90.293C90.5713 90.293 89.375 89.7607 88.4375 88.6963V96.0938H83.501V74.1504H88.1152L88.2617 75.6152C89.209 74.4434 90.4541 73.8574 91.9971 73.8574C93.9502 73.8574 95.4688 74.5801 96.5527 76.0254C97.6367 77.4609 98.1787 79.4385 98.1787 81.958V82.1924ZM93.2422 81.8848C93.2422 79.0723 92.4219 77.666 90.7812 77.666C89.6094 77.666 88.8281 78.0859 88.4375 78.9258V85.166C88.8672 86.0449 89.6582 86.4844 90.8105 86.4844C92.3828 86.4844 93.1934 85.127 93.2422 82.4121V81.8848ZM109.956 78.6182L108.33 78.501C106.777 78.501 105.781 78.9893 105.342 79.9658V90H100.405V74.1504H105.034L105.195 76.1865C106.025 74.6338 107.183 73.8574 108.667 73.8574C109.194 73.8574 109.653 73.916 110.044 74.0332L109.956 78.6182ZM116.943 90H111.992V74.1504H116.943V90ZM111.699 70.0635C111.699 69.3604 111.953 68.7842 112.461 68.335C112.969 67.8857 113.628 67.6611 114.438 67.6611C115.249 67.6611 115.908 67.8857 116.416 68.335C116.924 68.7842 117.178 69.3604 117.178 70.0635C117.178 70.7666 116.924 71.3428 116.416 71.792C115.908 72.2412 115.249 72.4658 114.438 72.4658C113.628 72.4658 112.969 72.2412 112.461 71.792C111.953 71.3428 111.699 70.7666 111.699 70.0635ZM128.296 85.5469C128.296 85.127 128.076 84.79 127.637 84.5361C127.197 84.2822 126.362 84.0186 125.132 83.7451C123.901 83.4717 122.886 83.1152 122.085 82.6758C121.284 82.2266 120.674 81.6846 120.254 81.0498C119.834 80.415 119.624 79.6875 119.624 78.8672C119.624 77.4121 120.225 76.2158 121.426 75.2783C122.627 74.3311 124.199 73.8574 126.143 73.8574C128.232 73.8574 129.912 74.3311 131.182 75.2783C132.451 76.2256 133.086 77.4707 133.086 79.0137H128.135C128.135 77.7441 127.466 77.1094 126.128 77.1094C125.61 77.1094 125.176 77.2559 124.824 77.5488C124.473 77.832 124.297 78.1885 124.297 78.6182C124.297 79.0576 124.512 79.4141 124.941 79.6875C125.371 79.9609 126.055 80.1855 126.992 80.3613C127.939 80.5371 128.77 80.7471 129.482 80.9912C131.865 81.8115 133.057 83.2812 133.057 85.4004C133.057 86.8457 132.412 88.0225 131.123 88.9307C129.844 89.8389 128.184 90.293 126.143 90.293C124.785 90.293 123.574 90.0488 122.51 89.5605C121.445 89.0723 120.615 88.4082 120.02 87.5684C119.424 86.7285 119.126 85.8447 119.126 84.917H123.74C123.76 85.6494 124.004 86.1865 124.473 86.5283C124.941 86.8604 125.542 87.0264 126.274 87.0264C126.948 87.0264 127.451 86.8896 127.783 86.6162C128.125 86.3428 128.296 85.9863 128.296 85.5469ZM143.047 90.293C140.615 90.293 138.647 89.5703 137.144 88.125C135.64 86.6699 134.888 84.7803 134.888 82.4561V82.0459C134.888 80.4248 135.186 78.9941 135.781 77.7539C136.387 76.5137 137.266 75.5566 138.418 74.8828C139.57 74.1992 140.938 73.8574 142.52 73.8574C144.746 73.8574 146.504 74.5508 147.793 75.9375C149.082 77.3145 149.727 79.2383 149.727 81.709V83.6279H139.912C140.088 84.5166 140.474 85.2148 141.069 85.7227C141.665 86.2305 142.437 86.4844 143.384 86.4844C144.946 86.4844 146.167 85.9375 147.046 84.8438L149.302 87.5098C148.687 88.3594 147.812 89.0381 146.68 89.5459C145.557 90.0439 144.346 90.293 143.047 90.293ZM142.49 77.666C141.045 77.666 140.186 78.623 139.912 80.5371H144.893V80.1562C144.912 79.3652 144.712 78.7549 144.292 78.3252C143.872 77.8857 143.271 77.666 142.49 77.666ZM160.024 85.5469C160.024 85.127 159.805 84.79 159.365 84.5361C158.926 84.2822 158.091 84.0186 156.86 83.7451C155.63 83.4717 154.614 83.1152 153.813 82.6758C153.013 82.2266 152.402 81.6846 151.982 81.0498C151.562 80.415 151.353 79.6875 151.353 78.8672C151.353 77.4121 151.953 76.2158 153.154 75.2783C154.355 74.3311 155.928 73.8574 157.871 73.8574C159.961 73.8574 161.641 74.3311 162.91 75.2783C164.18 76.2256 164.814 77.4707 164.814 79.0137H159.863C159.863 77.7441 159.194 77.1094 157.856 77.1094C157.339 77.1094 156.904 77.2559 156.553 77.5488C156.201 77.832 156.025 78.1885 156.025 78.6182C156.025 79.0576 156.24 79.4141 156.67 79.6875C157.1 79.9609 157.783 80.1855 158.721 80.3613C159.668 80.5371 160.498 80.7471 161.211 80.9912C163.594 81.8115 164.785 83.2812 164.785 85.4004C164.785 86.8457 164.141 88.0225 162.852 88.9307C161.572 89.8389 159.912 90.293 157.871 90.293C156.514 90.293 155.303 90.0488 154.238 89.5605C153.174 89.0723 152.344 88.4082 151.748 87.5684C151.152 86.7285 150.854 85.8447 150.854 84.917H155.469C155.488 85.6494 155.732 86.1865 156.201 86.5283C156.67 86.8604 157.271 87.0264 158.003 87.0264C158.677 87.0264 159.18 86.8896 159.512 86.6162C159.854 86.3428 160.024 85.9863 160.024 85.5469Z" fill="black"/>
<defs>
<filter id="filter0_df" x="0" y="0" width="460" height="310" filterUnits="userSpaceOnUse" color-interpolation-filters="sRGB">
<feFlood flood-opacity="0" result="BackgroundImageFix"/>
<feColorMatrix in="SourceAlpha" type="matrix" values="0 0 0 0 0 0 0 0 0 0 0 0 0 0 0 0 0 0 127 0"/>
<feOffset dx="15" dy="15"/>
<feGaussianBlur stdDeviation="15"/>
<feColorMatrix type="matrix" values="0 0 0 0 0 0 0 0 0 0 0 0 0 0 0 0 0 0 0.15 0"/>
<feBlend mode="normal" in2="BackgroundImageFix" result="effect1_dropShadow"/>
<feBlend mode="normal" in="SourceGraphic" in2="effect1_dropShadow" result="shape"/>
<feGaussianBlur stdDeviation="5" result="effect2_foregroundBlur"/>
</filter>
<linearGradient id="paint0_linear" x1="15" y1="15" x2="423.477" y2="250.283" gradientUnits="userSpaceOnUse">
<stop stop-color="#BA2F4C"/>
<stop offset="1" stop-color="#0B849E"/>
</linearGradient>
</defs>
</svg>
